<svg xmlns="http://www.w3.org/2000/svg" xmlns:xlink="http://www.w3.org/1999/xlink" width="500" zoomAndPan="magnify" viewBox="0 0 375 374.999991" height="500" preserveAspectRatio="xMidYMid meet" version="1.0"><defs><clipPath id="2038851778"><path d="M 212 37.875 L 267 37.875 L 267 91 L 212 91 Z M 212 37.875 " clip-rule="nonzero"/></clipPath><clipPath id="414c942efd"><path d="M 288 190 L 338.25 190 L 338.25 245 L 288 245 Z M 288 190 " clip-rule="nonzero"/></clipPath><clipPath id="a5e7e5cc88"><path d="M 149 292 L 205 292 L 205 337.875 L 149 337.875 Z M 149 292 " clip-rule="nonzero"/></clipPath><clipPath id="cf4a09eb62"><path d="M 37.5 172 L 79 172 L 79 227 L 37.5 227 Z M 37.5 172 " clip-rule="nonzero"/></clipPath></defs><path fill="#84c434" d="M 52.078125 128.917969 C 52.878906 129.84375 53.722656 130.699219 54.59375 131.523438 C 55.453125 132.355469 56.355469 133.136719 57.273438 133.878906 C 59.117188 135.359375 61.042969 136.679688 63.074219 137.738281 C 65.09375 138.8125 67.195312 139.636719 69.332031 140.171875 C 70.398438 140.4375 71.476562 140.628906 72.550781 140.753906 C 73.09375 140.792969 73.628906 140.871094 74.167969 140.878906 C 74.710938 140.878906 75.246094 140.886719 75.78125 140.902344 L 77.390625 140.792969 C 77.660156 140.789062 77.925781 140.734375 78.191406 140.695312 L 78.988281 140.574219 C 79.253906 140.527344 79.519531 140.507812 79.785156 140.449219 L 80.574219 140.269531 C 81.101562 140.144531 81.628906 140.0625 82.144531 139.875 L 83.695312 139.394531 L 85.222656 138.800781 L 85.988281 138.503906 L 86.734375 138.148438 L 88.226562 137.445312 C 88.710938 137.179688 89.1875 136.894531 89.679688 136.632812 C 90.164062 136.359375 90.660156 136.113281 91.125 135.789062 L 92.542969 134.882812 C 92.777344 134.730469 93.019531 134.59375 93.246094 134.421875 L 93.929688 133.921875 C 94.386719 133.582031 94.847656 133.261719 95.308594 132.933594 C 95.777344 132.621094 96.207031 132.234375 96.65625 131.882812 L 99.433594 129.65625 C 100.4375 128.871094 101.417969 128.066406 102.496094 127.359375 L 104.082031 126.269531 C 104.339844 126.082031 104.621094 125.925781 104.898438 125.757812 L 105.730469 125.257812 C 106.292969 124.9375 106.84375 124.609375 107.410156 124.292969 L 109.160156 123.429688 L 110.035156 122.996094 C 110.324219 122.851562 110.640625 122.746094 110.9375 122.617188 C 111.546875 122.363281 112.15625 122.121094 112.769531 121.886719 C 117.699219 120.097656 123.171875 119.359375 128.421875 120.1875 C 129.726562 120.40625 131.019531 120.679688 132.273438 121.074219 C 132.589844 121.171875 132.910156 121.242188 133.214844 121.359375 L 134.136719 121.699219 L 135.054688 122.035156 L 135.941406 122.441406 C 138.3125 123.496094 140.507812 124.84375 142.511719 126.390625 C 144.507812 127.941406 146.320312 129.683594 147.929688 131.574219 C 149.527344 133.464844 150.96875 135.484375 152.066406 137.667969 C 148.609375 134.25 144.757812 131.398438 140.660156 129.261719 C 136.566406 127.132812 132.195312 125.835938 127.84375 125.628906 L 126.214844 125.601562 C 125.671875 125.613281 125.132812 125.664062 124.59375 125.691406 C 124.054688 125.699219 123.519531 125.800781 122.980469 125.863281 L 122.179688 125.96875 C 121.910156 125.996094 121.648438 126.070312 121.382812 126.121094 C 120.855469 126.242188 120.324219 126.339844 119.796875 126.464844 C 119.277344 126.628906 118.753906 126.773438 118.234375 126.917969 C 117.707031 127.050781 117.199219 127.261719 116.691406 127.449219 L 115.921875 127.730469 C 115.667969 127.832031 115.40625 127.914062 115.160156 128.039062 C 114.167969 128.527344 113.144531 128.898438 112.179688 129.464844 L 110.714844 130.253906 C 110.238281 130.535156 109.765625 130.839844 109.292969 131.136719 C 108.824219 131.441406 108.332031 131.707031 107.871094 132.03125 L 106.492188 133.007812 C 105.554688 133.628906 104.6875 134.375 103.792969 135.074219 L 100.90625 137.335938 C 99.929688 138.136719 98.867188 138.859375 97.8125 139.582031 L 97.019531 140.117188 C 96.757812 140.296875 96.46875 140.449219 96.195312 140.617188 L 94.53125 141.601562 C 93.988281 141.949219 93.398438 142.226562 92.820312 142.519531 C 92.242188 142.816406 91.65625 143.101562 91.070312 143.382812 L 89.25 144.121094 L 88.34375 144.492188 L 87.402344 144.796875 C 86.773438 144.996094 86.148438 145.207031 85.511719 145.382812 L 83.570312 145.824219 C 82.929688 145.988281 82.257812 146.054688 81.601562 146.152344 L 80.613281 146.289062 C 80.285156 146.34375 79.945312 146.339844 79.613281 146.359375 L 78.609375 146.410156 C 78.277344 146.417969 77.945312 146.449219 77.609375 146.425781 L 75.605469 146.347656 C 74.9375 146.273438 74.273438 146.195312 73.613281 146.105469 C 72.957031 146.003906 72.308594 145.839844 71.65625 145.710938 C 70.363281 145.394531 69.097656 145.003906 67.886719 144.492188 C 65.449219 143.503906 63.207031 142.15625 61.203125 140.582031 C 59.195312 139.003906 57.429688 137.1875 55.898438 135.226562 C 55.125 134.253906 54.421875 133.234375 53.777344 132.183594 C 53.140625 131.125 52.542969 130.054688 52.078125 128.917969 " fill-opacity="1" fill-rule="nonzero"/><path fill="#84c434" d="M 86.144531 86.25 C 88.019531 86.933594 89.746094 87.929688 91.371094 89.0625 C 93 90.210938 94.5 91.542969 95.863281 93.058594 C 98.574219 96.074219 100.660156 99.898438 101.59375 104.332031 C 101.6875 104.886719 101.808594 105.445312 101.878906 106.015625 L 101.980469 106.871094 L 102.03125 107.304688 L 102.054688 107.734375 C 102.089844 108.320312 102.128906 108.898438 102.113281 109.496094 L 102.105469 110.378906 C 102.109375 110.667969 102.066406 111 102.046875 111.304688 C 101.859375 113.835938 101.167969 116.328125 100.199219 118.695312 C 99.222656 121.0625 97.910156 123.296875 96.398438 125.386719 C 94.875 127.457031 93.085938 129.332031 91.140625 131.003906 C 89.183594 132.65625 87.046875 134.074219 84.804688 135.203125 C 82.550781 136.296875 80.191406 137.082031 77.84375 137.515625 C 75.492188 137.96875 73.152344 138.019531 70.929688 137.773438 C 68.679688 137.59375 66.609375 136.9375 64.613281 136.214844 C 60.699219 134.617188 57.367188 132.183594 54.574219 129.320312 L 53.53125 128.246094 C 53.207031 127.867188 52.886719 127.484375 52.570312 127.09375 L 51.625 125.933594 C 51.304688 125.5625 51.039062 125.125 50.75 124.722656 L 49.902344 123.496094 L 49.484375 122.878906 C 49.355469 122.664062 49.226562 122.449219 49.101562 122.230469 C 48.601562 121.363281 48.101562 120.5 47.636719 119.613281 C 48.398438 120.238281 49.132812 120.878906 49.863281 121.511719 L 50.40625 121.984375 L 50.976562 122.441406 L 52.101562 123.339844 L 52.660156 123.796875 C 52.847656 123.941406 53.03125 124.09375 53.230469 124.230469 L 54.386719 125.066406 L 55.535156 125.90625 L 56.730469 126.671875 C 59.894531 128.710938 63.253906 130.351562 66.78125 131.273438 C 70.328125 132.121094 74.007812 132.3125 77.601562 131.414062 C 79.390625 130.972656 81.15625 130.351562 82.839844 129.453125 C 84.523438 128.574219 86.136719 127.476562 87.628906 126.203125 C 89.128906 124.941406 90.519531 123.503906 91.71875 121.925781 C 92.941406 120.363281 93.972656 118.664062 94.804688 116.917969 C 95.640625 115.167969 96.222656 113.351562 96.515625 111.578125 C 96.546875 111.351562 96.605469 111.144531 96.621094 110.902344 L 96.683594 110.183594 C 96.742188 109.703125 96.734375 109.230469 96.765625 108.757812 L 96.78125 108.394531 L 96.777344 108.042969 L 96.769531 107.324219 C 96.765625 106.851562 96.714844 106.386719 96.691406 105.910156 C 96.359375 102.144531 95.132812 98.523438 93.277344 95.230469 C 91.417969 91.929688 89 88.910156 86.144531 86.25 " fill-opacity="1" fill-rule="nonzero"/><path fill="#84c434" d="M 126.457031 96.3125 C 130.246094 100.824219 129.65625 107.554688 125.144531 111.339844 C 120.628906 115.125 113.902344 114.535156 110.117188 110.023438 C 106.328125 105.511719 106.917969 98.78125 111.433594 94.996094 C 115.945312 91.210938 122.671875 91.800781 126.457031 96.3125 " fill-opacity="1" fill-rule="nonzero"/><path fill="#2da44f" d="M 119.636719 56.171875 C 119.65625 57.390625 119.75 58.59375 119.886719 59.785156 C 120.015625 60.976562 120.203125 62.148438 120.429688 63.308594 C 120.890625 65.628906 121.519531 67.878906 122.390625 69.992188 C 123.25 72.113281 124.328125 74.101562 125.621094 75.882812 C 126.265625 76.773438 126.96875 77.613281 127.710938 78.402344 C 128.101562 78.777344 128.464844 79.179688 128.871094 79.539062 C 129.285156 79.882812 129.691406 80.230469 130.09375 80.585938 L 131.394531 81.542969 C 131.605469 81.707031 131.839844 81.835938 132.070312 81.980469 L 132.761719 82.398438 C 132.992188 82.535156 133.210938 82.691406 133.449219 82.816406 L 134.171875 83.1875 C 134.652344 83.421875 135.113281 83.699219 135.625 83.890625 L 137.125 84.519531 L 138.675781 85.050781 L 139.449219 85.308594 L 140.25 85.519531 L 141.847656 85.941406 C 142.394531 86.042969 142.941406 86.136719 143.484375 86.25 C 144.03125 86.355469 144.570312 86.480469 145.128906 86.535156 L 146.800781 86.753906 C 147.078125 86.78125 147.351562 86.835938 147.632812 86.851562 L 148.480469 86.90625 C 149.046875 86.9375 149.609375 86.988281 150.171875 87.035156 C 150.734375 87.097656 151.308594 87.074219 151.878906 87.097656 L 155.441406 87.171875 C 156.710938 87.21875 157.980469 87.234375 159.261719 87.386719 L 161.175781 87.566406 C 161.492188 87.59375 161.8125 87.648438 162.132812 87.699219 L 163.089844 87.855469 C 163.722656 87.972656 164.363281 88.070312 164.996094 88.195312 L 166.894531 88.660156 L 167.839844 88.886719 C 168.160156 88.964844 168.46875 89.085938 168.78125 89.179688 C 169.40625 89.375 170.027344 89.582031 170.644531 89.796875 C 175.574219 91.59375 180.242188 94.546875 183.730469 98.558594 C 184.589844 99.566406 185.40625 100.605469 186.113281 101.710938 C 186.292969 101.988281 186.488281 102.25 186.648438 102.535156 L 187.140625 103.386719 L 187.621094 104.234375 L 188.046875 105.113281 C 189.179688 107.445312 189.992188 109.890625 190.539062 112.363281 C 191.070312 114.835938 191.335938 117.339844 191.359375 119.816406 C 191.367188 122.292969 191.171875 124.765625 190.605469 127.144531 C 190.15625 122.304688 189.039062 117.644531 187.269531 113.378906 C 185.507812 109.109375 182.992188 105.308594 179.792969 102.355469 L 178.5625 101.285156 C 178.140625 100.945312 177.691406 100.640625 177.261719 100.3125 C 176.839844 99.972656 176.367188 99.703125 175.917969 99.410156 L 175.234375 98.972656 C 175.011719 98.820312 174.761719 98.710938 174.523438 98.582031 C 174.042969 98.328125 173.570312 98.066406 173.089844 97.824219 C 172.589844 97.613281 172.09375 97.382812 171.597656 97.164062 C 171.117188 96.925781 170.589844 96.761719 170.078125 96.574219 L 169.304688 96.300781 C 169.046875 96.210938 168.796875 96.113281 168.527344 96.046875 C 167.453125 95.78125 166.429688 95.40625 165.328125 95.21875 L 163.699219 94.882812 C 163.152344 94.796875 162.59375 94.730469 162.039062 94.652344 C 161.484375 94.582031 160.941406 94.460938 160.375 94.421875 L 158.691406 94.28125 C 157.574219 94.15625 156.429688 94.164062 155.296875 94.128906 L 151.632812 94.007812 C 150.367188 93.992188 149.089844 93.863281 147.820312 93.734375 L 146.867188 93.636719 C 146.546875 93.609375 146.230469 93.542969 145.910156 93.492188 L 144.003906 93.175781 C 143.367188 93.089844 142.738281 92.925781 142.101562 92.777344 C 141.472656 92.632812 140.839844 92.472656 140.210938 92.3125 L 138.339844 91.714844 L 137.410156 91.414062 L 136.492188 91.042969 C 135.878906 90.789062 135.265625 90.546875 134.667969 90.277344 L 132.894531 89.363281 C 132.296875 89.082031 131.742188 88.699219 131.175781 88.351562 L 130.328125 87.824219 C 130.042969 87.648438 129.785156 87.429688 129.519531 87.234375 L 128.71875 86.621094 C 128.457031 86.417969 128.1875 86.222656 127.941406 85.992188 L 126.453125 84.644531 C 125.992188 84.15625 125.535156 83.671875 125.089844 83.179688 C 124.644531 82.679688 124.257812 82.136719 123.84375 81.617188 C 123.058594 80.546875 122.335938 79.433594 121.734375 78.265625 C 120.503906 75.9375 119.65625 73.464844 119.128906 70.96875 C 118.609375 68.46875 118.421875 65.945312 118.507812 63.460938 C 118.539062 62.214844 118.660156 60.980469 118.839844 59.761719 C 119.03125 58.542969 119.265625 57.339844 119.636719 56.171875 " fill-opacity="1" fill-rule="nonzero"/><path fill="#2da44f" d="M 173.160156 45.386719 C 174.15625 47.109375 174.839844 48.980469 175.351562 50.898438 C 175.867188 52.820312 176.15625 54.8125 176.230469 56.839844 C 176.367188 60.898438 175.507812 65.171875 173.375 69.164062 C 173.085938 69.652344 172.820312 70.152344 172.507812 70.632812 L 172.035156 71.359375 L 171.796875 71.71875 L 171.539062 72.070312 C 171.191406 72.539062 170.847656 73.007812 170.453125 73.453125 L 169.878906 74.125 C 169.695312 74.347656 169.445312 74.578125 169.230469 74.800781 C 167.46875 76.613281 165.335938 78.085938 163.070312 79.269531 C 160.800781 80.460938 158.359375 81.328125 155.863281 81.953125 C 153.359375 82.5625 150.78125 82.847656 148.21875 82.878906 C 145.65625 82.886719 143.109375 82.601562 140.664062 82.023438 C 138.234375 81.410156 135.925781 80.496094 133.847656 79.320312 C 131.75 78.15625 129.933594 76.691406 128.386719 75.074219 C 126.78125 73.484375 125.613281 71.652344 124.546875 69.820312 C 122.578125 66.078125 121.589844 62.074219 121.289062 58.085938 L 121.183594 56.589844 C 121.175781 56.09375 121.179688 55.589844 121.183594 55.09375 L 121.207031 53.597656 C 121.199219 53.105469 121.277344 52.601562 121.316406 52.105469 L 121.457031 50.621094 L 121.535156 49.875 C 121.570312 49.632812 121.613281 49.382812 121.65625 49.136719 C 121.828125 48.152344 122.003906 47.167969 122.214844 46.191406 C 122.402344 47.15625 122.550781 48.117188 122.703125 49.070312 L 122.8125 49.789062 L 122.957031 50.5 L 123.242188 51.914062 L 123.378906 52.617188 C 123.421875 52.851562 123.464844 53.089844 123.53125 53.320312 L 123.882812 54.707031 L 124.222656 56.085938 L 124.644531 57.441406 C 125.757812 61.035156 127.28125 64.449219 129.390625 67.425781 C 131.558594 70.355469 134.257812 72.867188 137.582031 74.488281 C 139.238281 75.296875 140.992188 75.960938 142.855469 76.359375 C 144.714844 76.761719 146.652344 76.957031 148.613281 76.945312 C 150.570312 76.945312 152.5625 76.734375 154.496094 76.296875 C 156.4375 75.886719 158.320312 75.242188 160.085938 74.441406 C 161.847656 73.636719 163.460938 72.621094 164.824219 71.453125 C 164.992188 71.300781 165.171875 71.175781 165.339844 71 L 165.851562 70.492188 C 166.203125 70.164062 166.5 69.796875 166.832031 69.449219 L 167.074219 69.183594 L 167.296875 68.90625 L 167.75 68.363281 C 168.054688 67.992188 168.3125 67.601562 168.601562 67.21875 C 170.769531 64.128906 172.15625 60.566406 172.851562 56.84375 C 173.546875 53.121094 173.636719 49.257812 173.160156 45.386719 " fill-opacity="1" fill-rule="nonzero"/><path fill="#2da44f" d="M 197.578125 79.003906 C 197.578125 84.894531 192.800781 89.667969 186.910156 89.667969 C 181.019531 89.667969 176.242188 84.894531 176.242188 79.003906 C 176.242188 73.113281 181.019531 68.339844 186.910156 68.339844 C 192.800781 68.339844 197.578125 73.113281 197.578125 79.003906 " fill-opacity="1" fill-rule="nonzero"/><path fill="#49abe2" d="M 218.148438 43.871094 C 217.382812 44.816406 216.679688 45.800781 216.015625 46.800781 C 215.351562 47.792969 214.738281 48.816406 214.171875 49.847656 C 213.035156 51.917969 212.0625 54.050781 211.375 56.230469 C 210.667969 58.402344 210.222656 60.621094 210.0625 62.816406 C 209.988281 63.914062 209.988281 65.007812 210.046875 66.089844 C 210.101562 66.628906 210.125 67.171875 210.203125 67.699219 C 210.304688 68.234375 210.386719 68.765625 210.46875 69.296875 L 210.851562 70.863281 C 210.90625 71.125 211.003906 71.375 211.085938 71.632812 L 211.347656 72.398438 C 211.433594 72.648438 211.5 72.910156 211.609375 73.15625 L 211.921875 73.90625 C 212.140625 74.398438 212.308594 74.90625 212.582031 75.378906 L 213.324219 76.828125 L 214.175781 78.226562 L 214.597656 78.929688 L 215.078125 79.601562 L 216.035156 80.945312 C 216.378906 81.378906 216.746094 81.804688 217.089844 82.242188 C 217.4375 82.671875 217.765625 83.113281 218.164062 83.519531 L 219.300781 84.753906 C 219.492188 84.957031 219.671875 85.171875 219.878906 85.367188 L 220.492188 85.957031 C 220.902344 86.34375 221.300781 86.742188 221.703125 87.140625 C 222.089844 87.550781 222.550781 87.90625 222.972656 88.28125 L 225.648438 90.636719 C 226.59375 91.484375 227.5625 92.3125 228.441406 93.253906 L 229.789062 94.625 C 230.019531 94.84375 230.226562 95.09375 230.4375 95.339844 L 231.074219 96.074219 C 231.488281 96.570312 231.90625 97.054688 232.3125 97.558594 L 233.472656 99.128906 L 234.042969 99.917969 C 234.238281 100.179688 234.398438 100.46875 234.578125 100.742188 C 234.929688 101.300781 235.273438 101.859375 235.613281 102.417969 C 238.234375 106.960938 239.910156 112.226562 240.003906 117.539062 C 240.011719 118.863281 239.972656 120.183594 239.800781 121.484375 C 239.765625 121.8125 239.742188 122.140625 239.6875 122.460938 L 239.511719 123.429688 L 239.335938 124.390625 L 239.097656 125.335938 C 238.46875 127.855469 237.515625 130.253906 236.34375 132.492188 C 235.164062 134.730469 233.757812 136.816406 232.179688 138.730469 C 230.597656 140.628906 228.859375 142.398438 226.898438 143.859375 C 229.664062 139.859375 231.804688 135.570312 233.191406 131.164062 C 234.578125 126.765625 235.097656 122.230469 234.546875 117.917969 L 234.289062 116.304688 C 234.1875 115.777344 234.039062 115.25 233.917969 114.726562 C 233.816406 114.199219 233.628906 113.683594 233.472656 113.164062 L 233.230469 112.394531 C 233.160156 112.136719 233.035156 111.890625 232.941406 111.636719 C 232.734375 111.136719 232.535156 110.628906 232.324219 110.140625 C 232.078125 109.652344 231.84375 109.160156 231.609375 108.675781 C 231.386719 108.179688 231.085938 107.71875 230.816406 107.242188 L 230.40625 106.539062 C 230.265625 106.304688 230.136719 106.0625 229.96875 105.839844 C 229.320312 104.949219 228.777344 104.003906 228.050781 103.152344 L 227.023438 101.847656 C 226.65625 101.425781 226.277344 101.015625 225.898438 100.601562 C 225.515625 100.191406 225.175781 99.753906 224.773438 99.359375 L 223.574219 98.171875 C 222.796875 97.351562 221.917969 96.625 221.066406 95.871094 L 218.339844 93.421875 C 217.378906 92.597656 216.488281 91.675781 215.59375 90.761719 L 214.925781 90.074219 C 214.699219 89.84375 214.5 89.589844 214.285156 89.347656 L 213.03125 87.882812 C 212.597656 87.402344 212.222656 86.875 211.828125 86.355469 C 211.441406 85.835938 211.058594 85.308594 210.679688 84.78125 L 209.632812 83.121094 L 209.113281 82.289062 L 208.648438 81.417969 C 208.34375 80.828125 208.027344 80.253906 207.742188 79.65625 L 206.972656 77.824219 C 206.699219 77.222656 206.515625 76.566406 206.304688 75.9375 L 206 74.988281 C 205.890625 74.675781 205.835938 74.335938 205.753906 74.015625 L 205.535156 73.035156 C 205.464844 72.710938 205.382812 72.386719 205.34375 72.054688 L 205.070312 70.0625 C 205.027344 69.398438 204.988281 68.726562 204.964844 68.0625 C 204.949219 67.398438 205 66.726562 205.015625 66.066406 C 205.101562 64.738281 205.265625 63.425781 205.558594 62.140625 C 206.109375 59.574219 207.054688 57.128906 208.25 54.878906 C 209.457031 52.628906 210.9375 50.574219 212.597656 48.730469 C 213.421875 47.792969 214.308594 46.925781 215.230469 46.113281 C 216.160156 45.296875 217.117188 44.523438 218.148438 43.871094 " fill-opacity="1" fill-rule="nonzero"/><g clip-path="url(#2038851778)"><path fill="#49abe2" d="M 266.085938 70.011719 C 265.734375 71.972656 265.058594 73.84375 264.222656 75.648438 C 263.378906 77.445312 262.320312 79.160156 261.070312 80.761719 C 258.570312 83.957031 255.167969 86.675781 250.964844 88.363281 C 250.429688 88.554688 249.90625 88.769531 249.355469 88.9375 L 248.53125 89.183594 L 248.117188 89.308594 L 247.6875 89.414062 C 247.128906 89.542969 246.558594 89.6875 245.972656 89.773438 L 245.101562 89.921875 C 244.808594 89.96875 244.476562 89.988281 244.171875 90.019531 C 241.652344 90.277344 239.074219 90.03125 236.574219 89.484375 C 234.070312 88.933594 231.640625 88.03125 229.328125 86.90625 C 227.019531 85.765625 224.863281 84.328125 222.878906 82.703125 C 220.910156 81.0625 219.144531 79.203125 217.640625 77.1875 C 216.171875 75.160156 214.996094 72.96875 214.160156 70.738281 C 213.304688 68.5 212.851562 66.203125 212.699219 63.972656 C 212.492188 61.722656 212.777344 59.574219 213.136719 57.484375 C 214.042969 53.351562 215.855469 49.644531 218.1875 46.394531 L 219.066406 45.183594 C 219.382812 44.796875 219.703125 44.414062 220.03125 44.035156 L 221.011719 42.90625 C 221.320312 42.523438 221.703125 42.191406 222.050781 41.835938 L 223.113281 40.785156 L 223.648438 40.269531 C 223.835938 40.105469 224.023438 39.941406 224.21875 39.773438 C 224.988281 39.136719 225.75 38.492188 226.539062 37.878906 C 226.0625 38.738281 225.5625 39.574219 225.0625 40.40625 L 224.6875 41.019531 L 224.34375 41.660156 L 223.648438 42.925781 L 223.300781 43.554688 C 223.183594 43.761719 223.066406 43.96875 222.964844 44.191406 L 222.34375 45.480469 L 221.714844 46.75 L 221.175781 48.0625 C 219.710938 51.53125 218.683594 55.125 218.386719 58.765625 C 218.164062 62.394531 218.617188 66.054688 220.125 69.4375 C 220.875 71.121094 221.789062 72.753906 222.964844 74.261719 C 224.128906 75.765625 225.484375 77.160156 226.996094 78.40625 C 228.5 79.664062 230.15625 80.789062 231.917969 81.695312 C 233.667969 82.628906 235.523438 83.347656 237.394531 83.863281 C 239.257812 84.382812 241.152344 84.640625 242.941406 84.625 C 243.171875 84.613281 243.390625 84.632812 243.628906 84.605469 L 244.34375 84.546875 C 244.832031 84.519531 245.289062 84.429688 245.773438 84.378906 L 246.125 84.328125 L 247.175781 84.128906 C 247.644531 84.046875 248.09375 83.914062 248.558594 83.808594 C 252.207031 82.832031 255.558594 80.988281 258.484375 78.59375 C 261.410156 76.1875 263.960938 73.289062 266.085938 70.011719 " fill-opacity="1" fill-rule="nonzero"/></g><path fill="#49abe2" d="M 263.179688 111.460938 C 259.394531 115.972656 252.664062 116.558594 248.152344 112.773438 C 243.640625 108.984375 243.050781 102.257812 246.835938 97.742188 C 250.621094 93.230469 257.351562 92.640625 261.863281 96.433594 C 266.375 100.21875 266.964844 106.949219 263.179688 111.460938 " fill-opacity="1" fill-rule="nonzero"/><path fill="#323491" d="M 301.523438 97.773438 C 300.324219 98 299.15625 98.300781 298.007812 98.644531 C 296.855469 98.980469 295.730469 99.367188 294.628906 99.792969 C 292.425781 100.648438 290.316406 101.65625 288.390625 102.882812 C 286.449219 104.097656 284.683594 105.507812 283.152344 107.085938 C 282.386719 107.878906 281.683594 108.710938 281.03125 109.582031 C 280.730469 110.027344 280.398438 110.460938 280.121094 110.921875 C 279.851562 111.390625 279.574219 111.847656 279.292969 112.308594 L 278.585938 113.753906 C 278.453125 113.988281 278.367188 114.246094 278.269531 114.5 L 277.972656 115.25 C 277.878906 115.503906 277.765625 115.742188 277.683594 116 L 277.445312 116.773438 C 277.292969 117.292969 277.097656 117.789062 277 118.332031 L 276.644531 119.917969 L 276.394531 121.535156 L 276.265625 122.34375 L 276.203125 123.164062 L 276.066406 124.8125 C 276.054688 125.367188 276.0625 125.925781 276.042969 126.476562 C 276.035156 127.035156 276.007812 127.585938 276.050781 128.148438 L 276.128906 129.828125 C 276.140625 130.109375 276.136719 130.386719 276.171875 130.671875 L 276.265625 131.511719 C 276.328125 132.078125 276.378906 132.636719 276.433594 133.199219 C 276.472656 133.765625 276.589844 134.332031 276.667969 134.894531 L 277.207031 138.410156 C 277.386719 139.675781 277.589844 140.929688 277.667969 142.214844 L 277.816406 144.132812 C 277.847656 144.449219 277.847656 144.769531 277.855469 145.09375 L 277.863281 146.066406 C 277.863281 146.710938 277.875 147.355469 277.863281 148.003906 L 277.738281 149.949219 L 277.671875 150.925781 C 277.65625 151.25 277.589844 151.578125 277.554688 151.898438 C 277.464844 152.546875 277.367188 153.199219 277.269531 153.84375 C 276.351562 159.011719 274.253906 164.121094 270.910156 168.25 C 270.070312 169.269531 269.1875 170.257812 268.21875 171.144531 C 267.976562 171.367188 267.753906 171.605469 267.5 171.816406 L 266.746094 172.449219 L 266 173.070312 L 265.207031 173.640625 C 263.105469 175.164062 260.835938 176.386719 258.5 177.351562 C 256.152344 178.304688 253.742188 179.003906 251.300781 179.457031 C 248.863281 179.894531 246.394531 180.128906 243.953125 179.988281 C 248.640625 178.703125 253.035156 176.792969 256.933594 174.3125 C 260.828125 171.832031 264.136719 168.691406 266.492188 165.03125 L 267.324219 163.632812 C 267.589844 163.15625 267.8125 162.667969 268.058594 162.183594 C 268.320312 161.710938 268.503906 161.195312 268.71875 160.707031 L 269.03125 159.957031 C 269.140625 159.710938 269.199219 159.441406 269.292969 159.1875 C 269.457031 158.671875 269.632812 158.160156 269.785156 157.644531 C 269.90625 157.109375 270.046875 156.585938 270.179688 156.0625 C 270.332031 155.542969 270.394531 154.996094 270.488281 154.460938 L 270.625 153.652344 C 270.675781 153.382812 270.730469 153.117188 270.746094 152.84375 C 270.816406 151.742188 271.007812 150.664062 271.003906 149.550781 L 271.050781 147.882812 C 271.039062 147.328125 271.011719 146.769531 270.992188 146.210938 C 270.964844 145.648438 270.988281 145.097656 270.933594 144.535156 L 270.773438 142.847656 C 270.707031 141.726562 270.496094 140.601562 270.335938 139.476562 L 269.816406 135.851562 C 269.617188 134.597656 269.523438 133.320312 269.421875 132.046875 L 269.351562 131.09375 C 269.324219 130.773438 269.34375 130.449219 269.332031 130.125 L 269.308594 128.191406 C 269.285156 127.554688 269.34375 126.902344 269.375 126.253906 C 269.410156 125.601562 269.449219 124.957031 269.5 124.308594 L 269.769531 122.363281 L 269.90625 121.390625 L 270.113281 120.425781 C 270.253906 119.78125 270.378906 119.136719 270.542969 118.496094 L 271.140625 116.589844 C 271.3125 115.957031 271.597656 115.34375 271.839844 114.71875 L 272.210938 113.796875 C 272.328125 113.488281 272.503906 113.191406 272.652344 112.894531 L 273.109375 112 C 273.265625 111.707031 273.410156 111.40625 273.597656 111.128906 L 274.660156 109.429688 C 275.0625 108.894531 275.464844 108.351562 275.871094 107.828125 C 276.289062 107.308594 276.753906 106.828125 277.195312 106.332031 C 278.113281 105.371094 279.082031 104.46875 280.128906 103.675781 C 282.207031 102.058594 284.496094 100.789062 286.867188 99.839844 C 289.230469 98.890625 291.6875 98.269531 294.152344 97.921875 C 295.382812 97.738281 296.617188 97.640625 297.84375 97.605469 C 299.082031 97.585938 300.308594 97.605469 301.523438 97.773438 " fill-opacity="1" fill-rule="nonzero"/><path fill="#323491" d="M 321.441406 148.605469 C 319.914062 149.890625 318.191406 150.882812 316.390625 151.722656 C 314.589844 152.5625 312.675781 153.195312 310.6875 153.621094 C 306.722656 154.460938 302.363281 154.351562 298.058594 152.945312 C 297.53125 152.746094 296.988281 152.574219 296.457031 152.351562 L 295.667969 152.007812 L 295.269531 151.839844 L 294.878906 151.644531 C 294.359375 151.386719 293.835938 151.128906 293.328125 150.816406 L 292.570312 150.371094 C 292.3125 150.226562 292.050781 150.019531 291.792969 149.851562 C 289.695312 148.425781 287.882812 146.578125 286.320312 144.558594 C 284.753906 142.527344 283.472656 140.269531 282.425781 137.921875 C 281.386719 135.566406 280.660156 133.074219 280.1875 130.558594 C 279.738281 128.03125 279.574219 125.476562 279.714844 122.96875 C 279.894531 120.46875 280.398438 118.035156 281.195312 115.789062 C 281.976562 113.519531 283.105469 111.46875 284.429688 109.667969 C 285.710938 107.8125 287.3125 106.339844 288.9375 104.976562 C 292.277344 102.386719 296.054688 100.71875 299.925781 99.726562 L 301.378906 99.367188 C 301.871094 99.273438 302.363281 99.1875 302.855469 99.109375 L 304.328125 98.867188 C 304.816406 98.777344 305.324219 98.765625 305.820312 98.71875 L 307.304688 98.59375 L 308.054688 98.546875 C 308.300781 98.535156 308.550781 98.535156 308.800781 98.535156 C 309.808594 98.535156 310.800781 98.535156 311.800781 98.574219 C 310.878906 98.925781 309.960938 99.238281 309.050781 99.558594 L 308.359375 99.785156 L 307.6875 100.058594 L 306.339844 100.578125 L 305.675781 100.84375 C 305.449219 100.921875 305.226562 101.003906 305.007812 101.109375 L 303.699219 101.695312 L 302.402344 102.273438 L 301.144531 102.921875 C 297.796875 104.640625 294.699219 106.734375 292.132812 109.332031 C 289.625 111.972656 287.621094 115.066406 286.605469 118.628906 C 286.089844 120.394531 285.746094 122.238281 285.679688 124.144531 C 285.597656 126.042969 285.746094 127.984375 286.101562 129.914062 C 286.441406 131.839844 286.992188 133.765625 287.757812 135.59375 C 288.5 137.433594 289.457031 139.175781 290.554688 140.777344 C 291.652344 142.371094 292.933594 143.785156 294.324219 144.925781 C 294.5 145.066406 294.65625 145.21875 294.859375 145.355469 L 295.445312 145.765625 C 295.835938 146.058594 296.246094 146.289062 296.644531 146.550781 L 296.949219 146.75 L 297.257812 146.921875 L 297.878906 147.273438 C 298.292969 147.5 298.71875 147.695312 299.144531 147.910156 C 302.570312 149.507812 306.320312 150.253906 310.097656 150.300781 C 313.890625 150.332031 317.707031 149.753906 321.441406 148.605469 " fill-opacity="1" fill-rule="nonzero"/><path fill="#323491" d="M 292.574219 178.492188 C 286.773438 179.511719 281.238281 175.640625 280.21875 169.839844 C 279.191406 164.035156 283.070312 158.503906 288.871094 157.480469 C 294.671875 156.460938 300.199219 160.332031 301.226562 166.132812 C 302.246094 171.9375 298.375 177.464844 292.574219 178.492188 " fill-opacity="1" fill-rule="nonzero"/><path fill="#98198e" d="M 330.746094 192.648438 C 329.675781 192.058594 328.589844 191.539062 327.488281 191.058594 C 326.398438 190.578125 325.285156 190.148438 324.164062 189.769531 C 321.929688 189.011719 319.664062 188.425781 317.394531 188.125 C 315.136719 187.804688 312.875 187.75 310.683594 187.980469 C 309.589844 188.089844 308.515625 188.277344 307.460938 188.53125 C 306.933594 188.675781 306.40625 188.792969 305.898438 188.96875 C 305.386719 189.152344 304.878906 189.328125 304.371094 189.496094 L 302.898438 190.152344 C 302.644531 190.253906 302.410156 190.386719 302.175781 190.519531 L 301.464844 190.902344 C 301.238281 191.039062 300.992188 191.144531 300.769531 191.296875 L 300.085938 191.730469 C 299.636719 192.03125 299.167969 192.289062 298.746094 192.636719 L 297.453125 193.621094 L 296.21875 194.703125 L 295.601562 195.238281 L 295.023438 195.828125 L 293.863281 197.003906 C 293.496094 197.421875 293.140625 197.855469 292.773438 198.265625 C 292.410156 198.683594 292.03125 199.089844 291.699219 199.550781 L 290.679688 200.886719 C 290.515625 201.109375 290.335938 201.316406 290.175781 201.558594 L 289.707031 202.261719 C 289.394531 202.738281 289.066406 203.199219 288.75 203.667969 C 288.417969 204.121094 288.144531 204.628906 287.84375 205.109375 L 285.992188 208.15625 C 285.320312 209.238281 284.667969 210.332031 283.898438 211.355469 L 282.785156 212.925781 C 282.605469 213.1875 282.398438 213.441406 282.195312 213.691406 L 281.578125 214.4375 C 281.164062 214.9375 280.757812 215.433594 280.332031 215.925781 L 278.984375 217.335938 L 278.304688 218.039062 C 278.089844 218.273438 277.824219 218.484375 277.589844 218.707031 C 277.105469 219.148438 276.613281 219.585938 276.121094 220.015625 C 272.101562 223.382812 267.207031 225.949219 261.988281 226.964844 C 260.691406 227.203125 259.378906 227.390625 258.066406 227.449219 C 257.742188 227.46875 257.414062 227.503906 257.082031 227.503906 L 256.105469 227.503906 L 255.128906 227.5 L 254.15625 227.421875 C 251.566406 227.242188 249.042969 226.726562 246.628906 225.957031 C 244.222656 225.183594 241.921875 224.167969 239.765625 222.945312 C 237.617188 221.710938 235.574219 220.304688 233.792969 218.628906 C 238.210938 220.65625 242.804688 222.023438 247.386719 222.621094 C 251.960938 223.226562 256.515625 222.949219 260.671875 221.65625 L 262.214844 221.125 C 262.71875 220.929688 263.207031 220.691406 263.703125 220.484375 C 264.207031 220.289062 264.683594 220.015625 265.164062 219.773438 L 265.878906 219.402344 C 266.125 219.285156 266.34375 219.121094 266.578125 218.984375 C 267.03125 218.6875 267.496094 218.414062 267.949219 218.113281 C 268.378906 217.789062 268.824219 217.476562 269.261719 217.15625 C 269.714844 216.859375 270.117188 216.484375 270.53125 216.132812 L 271.15625 215.601562 C 271.363281 215.421875 271.578125 215.257812 271.769531 215.058594 C 272.53125 214.257812 273.367188 213.554688 274.082031 212.699219 L 275.1875 211.457031 C 275.542969 211.023438 275.875 210.578125 276.21875 210.132812 C 276.558594 209.6875 276.929688 209.277344 277.246094 208.808594 L 278.210938 207.421875 C 278.878906 206.519531 279.441406 205.519531 280.042969 204.550781 L 281.984375 201.445312 C 282.628906 200.359375 283.375 199.3125 284.121094 198.273438 L 284.683594 197.5 C 284.867188 197.238281 285.085938 196.996094 285.289062 196.746094 L 286.511719 195.25 C 286.902344 194.746094 287.367188 194.28125 287.808594 193.808594 C 288.253906 193.332031 288.703125 192.863281 289.15625 192.398438 L 290.613281 191.082031 L 291.339844 190.425781 L 292.121094 189.816406 C 292.644531 189.410156 293.160156 189 293.695312 188.613281 L 295.371094 187.535156 C 295.910156 187.160156 296.523438 186.875 297.109375 186.550781 L 297.988281 186.082031 C 298.28125 185.925781 298.597656 185.816406 298.90625 185.679688 L 299.828125 185.289062 C 300.140625 185.164062 300.445312 185.027344 300.769531 184.929688 L 302.675781 184.316406 C 303.328125 184.160156 303.980469 184.007812 304.628906 183.867188 C 305.285156 183.734375 305.953125 183.667969 306.605469 183.570312 C 307.921875 183.429688 309.25 183.359375 310.5625 183.425781 C 313.195312 183.523438 315.757812 184.023438 318.183594 184.816406 C 320.609375 185.613281 322.890625 186.710938 325 188.027344 C 326.058594 188.675781 327.070312 189.398438 328.03125 190.164062 C 328.992188 190.9375 329.921875 191.742188 330.746094 192.648438 " fill-opacity="1" fill-rule="nonzero"/><g clip-path="url(#414c942efd)"><path fill="#98198e" d="M 313.324219 244.394531 C 311.332031 244.394531 309.371094 244.050781 307.453125 243.542969 C 305.53125 243.023438 303.664062 242.28125 301.867188 241.328125 C 298.285156 239.417969 295.015625 236.535156 292.625 232.695312 C 292.34375 232.199219 292.042969 231.71875 291.78125 231.207031 L 291.394531 230.441406 L 291.199219 230.050781 L 291.027344 229.652344 C 290.792969 229.117188 290.558594 228.582031 290.371094 228.019531 L 290.070312 227.183594 C 289.972656 226.914062 289.902344 226.589844 289.816406 226.289062 C 289.121094 223.851562 288.917969 221.273438 289.023438 218.714844 C 289.125 216.152344 289.597656 213.609375 290.304688 211.132812 C 291.027344 208.660156 292.070312 206.289062 293.320312 204.054688 C 294.601562 201.832031 296.117188 199.765625 297.839844 197.9375 C 299.589844 196.140625 301.539062 194.597656 303.589844 193.386719 C 305.652344 192.152344 307.832031 191.308594 310 190.773438 C 312.179688 190.179688 314.347656 190.085938 316.464844 190.082031 C 320.695312 190.246094 324.660156 191.394531 328.261719 193.125 L 329.609375 193.785156 C 330.046875 194.027344 330.480469 194.277344 330.902344 194.535156 L 332.1875 195.296875 C 332.621094 195.539062 333.019531 195.863281 333.429688 196.140625 L 334.644531 197.003906 L 335.246094 197.441406 C 335.445312 197.597656 335.632812 197.757812 335.828125 197.914062 C 336.597656 198.558594 337.359375 199.203125 338.097656 199.875 C 337.171875 199.554688 336.265625 199.203125 335.359375 198.855469 L 334.683594 198.59375 L 333.996094 198.367188 L 332.628906 197.902344 L 331.945312 197.667969 C 331.722656 197.59375 331.5 197.511719 331.265625 197.453125 L 329.886719 197.058594 L 328.527344 196.664062 L 327.140625 196.359375 C 323.46875 195.523438 319.753906 195.132812 316.125 195.46875 C 312.503906 195.882812 308.976562 196.964844 305.910156 199.035156 C 304.378906 200.0625 302.929688 201.25 301.652344 202.667969 C 300.375 204.078125 299.230469 205.65625 298.273438 207.363281 C 297.289062 209.058594 296.476562 210.882812 295.882812 212.777344 C 295.273438 214.664062 294.886719 216.621094 294.699219 218.546875 C 294.515625 220.476562 294.589844 222.382812 294.917969 224.144531 C 294.964844 224.367188 294.984375 224.582031 295.054688 224.816406 L 295.238281 225.511719 C 295.347656 225.988281 295.511719 226.425781 295.648438 226.882812 L 295.757812 227.226562 L 295.882812 227.558594 L 296.128906 228.226562 C 296.300781 228.675781 296.507812 229.09375 296.691406 229.53125 C 298.285156 232.957031 300.679688 235.9375 303.554688 238.402344 C 306.429688 240.867188 309.734375 242.878906 313.324219 244.394531 " fill-opacity="1" fill-rule="nonzero"/></g><path fill="#98198e" d="M 272.003906 248.734375 C 266.902344 245.789062 265.152344 239.265625 268.097656 234.164062 C 271.046875 229.0625 277.566406 227.3125 282.667969 230.257812 C 287.773438 233.203125 289.519531 239.726562 286.570312 244.828125 C 283.625 249.929688 277.105469 251.675781 272.003906 248.734375 " fill-opacity="1" fill-rule="nonzero"/><path fill="#e9097f" d="M 292.140625 284.121094 C 291.707031 282.976562 291.203125 281.878906 290.667969 280.808594 C 290.144531 279.730469 289.5625 278.6875 288.953125 277.675781 C 287.730469 275.664062 286.371094 273.753906 284.824219 272.066406 C 283.292969 270.371094 281.601562 268.878906 279.78125 267.644531 C 278.871094 267.027344 277.917969 266.480469 276.953125 265.988281 C 276.453125 265.769531 275.976562 265.519531 275.476562 265.324219 C 274.960938 265.136719 274.460938 264.945312 273.964844 264.753906 L 272.414062 264.300781 C 272.160156 264.21875 271.894531 264.175781 271.632812 264.121094 L 270.839844 263.960938 C 270.570312 263.914062 270.320312 263.84375 270.046875 263.808594 L 269.242188 263.707031 C 268.707031 263.644531 268.183594 263.542969 267.636719 263.535156 L 266.007812 263.460938 L 264.375 263.5 L 263.558594 263.507812 L 262.730469 263.589844 L 261.089844 263.742188 C 260.542969 263.832031 259.996094 263.933594 259.445312 264.011719 C 258.898438 264.097656 258.347656 264.164062 257.800781 264.308594 L 256.160156 264.671875 C 255.890625 264.738281 255.609375 264.78125 255.34375 264.863281 L 254.523438 265.101562 C 253.980469 265.261719 253.433594 265.410156 252.886719 265.5625 C 252.34375 265.695312 251.808594 265.910156 251.265625 266.085938 L 247.890625 267.226562 C 246.683594 267.621094 245.488281 268.042969 244.230469 268.335938 L 242.367188 268.816406 C 242.0625 268.90625 241.738281 268.964844 241.425781 269.023438 L 240.472656 269.207031 C 239.835938 269.316406 239.207031 269.441406 238.566406 269.539062 L 236.621094 269.753906 L 235.65625 269.855469 C 235.332031 269.898438 235 269.890625 234.671875 269.910156 C 234.015625 269.9375 233.359375 269.957031 232.707031 269.96875 C 227.460938 269.964844 222.0625 268.785156 217.417969 266.210938 C 216.265625 265.558594 215.144531 264.859375 214.101562 264.058594 C 213.839844 263.863281 213.558594 263.683594 213.3125 263.472656 L 212.558594 262.839844 L 211.816406 262.207031 L 211.117188 261.523438 C 209.253906 259.722656 207.65625 257.699219 206.296875 255.566406 C 204.949219 253.417969 203.839844 251.164062 202.980469 248.839844 C 202.121094 246.515625 201.460938 244.128906 201.175781 241.699219 C 203.257812 246.09375 205.902344 250.09375 209.019531 253.496094 C 212.140625 256.898438 215.804688 259.613281 219.820312 261.296875 L 221.339844 261.882812 C 221.851562 262.050781 222.382812 262.1875 222.894531 262.351562 C 223.410156 262.527344 223.945312 262.613281 224.46875 262.738281 L 225.261719 262.917969 C 225.515625 262.984375 225.796875 262.996094 226.058594 263.039062 C 226.597656 263.109375 227.128906 263.199219 227.667969 263.257812 C 228.210938 263.285156 228.75 263.335938 229.292969 263.367188 C 229.828125 263.425781 230.378906 263.40625 230.925781 263.398438 L 231.746094 263.394531 C 232.019531 263.394531 232.285156 263.40625 232.5625 263.371094 C 233.660156 263.25 234.753906 263.25 235.851562 263.050781 L 237.496094 262.816406 C 238.042969 262.703125 238.589844 262.582031 239.132812 262.464844 C 239.679688 262.339844 240.234375 262.261719 240.773438 262.109375 L 242.40625 261.660156 C 243.5 261.402344 244.570312 261 245.652344 260.644531 L 249.136719 259.503906 C 250.328125 259.089844 251.570312 258.773438 252.8125 258.457031 L 253.742188 258.226562 C 254.046875 258.144531 254.371094 258.097656 254.6875 258.035156 L 256.585938 257.679688 C 257.214844 257.542969 257.863281 257.484375 258.511719 257.402344 C 259.15625 257.324219 259.800781 257.253906 260.445312 257.191406 L 262.410156 257.117188 L 263.390625 257.085938 L 264.375 257.117188 C 265.039062 257.144531 265.699219 257.15625 266.355469 257.210938 L 268.332031 257.460938 C 268.988281 257.523438 269.644531 257.695312 270.292969 257.824219 L 271.269531 258.035156 C 271.59375 258.101562 271.914062 258.214844 272.230469 258.308594 L 273.195312 258.609375 C 273.507812 258.707031 273.828125 258.800781 274.140625 258.9375 L 275.996094 259.691406 C 276.597656 259.992188 277.191406 260.292969 277.78125 260.601562 C 278.367188 260.925781 278.921875 261.296875 279.484375 261.644531 C 280.589844 262.382812 281.648438 263.179688 282.617188 264.078125 C 284.566406 265.839844 286.210938 267.878906 287.554688 270.042969 C 288.902344 272.210938 289.941406 274.515625 290.710938 276.882812 C 291.105469 278.0625 291.417969 279.261719 291.660156 280.46875 C 291.894531 281.675781 292.09375 282.894531 292.140625 284.121094 " fill-opacity="1" fill-rule="nonzero"/><path fill="#e9097f" d="M 245.539062 312.5625 C 244.011719 311.277344 242.730469 309.753906 241.589844 308.128906 C 240.449219 306.5 239.496094 304.730469 238.730469 302.84375 C 237.21875 299.078125 236.5625 294.769531 237.199219 290.289062 C 237.304688 289.730469 237.378906 289.171875 237.511719 288.609375 L 237.808594 287.347656 L 237.933594 286.933594 C 238.097656 286.367188 238.261719 285.8125 238.480469 285.261719 L 238.789062 284.429688 C 238.882812 284.15625 239.042969 283.859375 239.167969 283.578125 C 240.207031 281.265625 241.707031 279.160156 243.425781 277.269531 C 245.152344 275.371094 247.152344 273.722656 249.285156 272.28125 C 251.425781 270.847656 253.746094 269.703125 256.144531 268.796875 C 258.554688 267.917969 261.042969 267.3125 263.539062 267.015625 C 266.03125 266.765625 268.511719 266.835938 270.871094 267.226562 C 273.238281 267.605469 275.449219 268.359375 277.453125 269.347656 C 279.507812 270.289062 281.230469 271.617188 282.855469 272.96875 C 285.992188 275.816406 288.285156 279.242188 289.933594 282.882812 L 290.542969 284.257812 C 290.722656 284.71875 290.890625 285.1875 291.054688 285.664062 L 291.546875 287.074219 C 291.722656 287.539062 291.820312 288.035156 291.957031 288.515625 L 292.332031 289.957031 L 292.515625 290.683594 C 292.5625 290.925781 292.605469 291.171875 292.652344 291.417969 C 292.824219 292.40625 293 293.386719 293.136719 294.375 C 292.628906 293.535156 292.160156 292.683594 291.6875 291.835938 L 291.339844 291.203125 L 290.957031 290.585938 L 290.207031 289.351562 L 289.835938 288.734375 C 289.71875 288.53125 289.597656 288.324219 289.457031 288.128906 L 288.652344 286.949219 L 287.867188 285.761719 L 287.003906 284.636719 C 284.722656 281.636719 282.125 278.953125 279.125 276.875 C 276.089844 274.863281 272.691406 273.429688 269.011719 273.046875 C 267.179688 272.847656 265.304688 272.828125 263.421875 273.089844 C 261.53125 273.347656 259.640625 273.828125 257.804688 274.515625 C 255.96875 275.179688 254.167969 276.054688 252.503906 277.125 C 250.820312 278.179688 249.269531 279.425781 247.886719 280.78125 C 246.503906 282.140625 245.335938 283.648438 244.457031 285.214844 C 244.34375 285.417969 244.222656 285.59375 244.125 285.816406 L 243.816406 286.464844 C 243.597656 286.898438 243.445312 287.339844 243.253906 287.78125 L 243.117188 288.117188 L 242.996094 288.449219 L 242.761719 289.125 C 242.605469 289.570312 242.488281 290.03125 242.351562 290.480469 C 241.375 294.132812 241.289062 297.953125 241.902344 301.6875 C 242.527344 305.421875 243.761719 309.082031 245.539062 312.5625 " fill-opacity="1" fill-rule="nonzero"/><path fill="#e9097f" d="M 211.097656 289.320312 C 209.078125 283.785156 211.929688 277.664062 217.46875 275.644531 C 223.003906 273.636719 229.125 276.488281 231.144531 282.023438 C 233.152344 287.558594 230.300781 293.679688 224.761719 295.691406 C 219.230469 297.710938 213.109375 294.859375 211.097656 289.320312 " fill-opacity="1" fill-rule="nonzero"/><path fill="#eb1f39" d="M 203.777344 329.371094 C 204.175781 328.21875 204.496094 327.054688 204.777344 325.890625 C 205.066406 324.726562 205.289062 323.558594 205.476562 322.390625 C 205.832031 320.054688 206.015625 317.722656 205.917969 315.441406 C 205.835938 313.152344 205.496094 310.917969 204.894531 308.804688 C 204.59375 307.746094 204.21875 306.714844 203.792969 305.722656 C 203.550781 305.230469 203.351562 304.734375 203.09375 304.257812 C 202.820312 303.796875 202.558594 303.320312 202.300781 302.851562 L 201.402344 301.511719 C 201.265625 301.28125 201.082031 301.078125 200.917969 300.867188 L 200.417969 300.238281 C 200.242188 300.03125 200.09375 299.8125 199.910156 299.609375 L 199.355469 299.015625 C 198.984375 298.628906 198.652344 298.207031 198.230469 297.855469 L 197.035156 296.753906 L 195.761719 295.726562 L 195.121094 295.214844 L 194.445312 294.742188 L 193.085938 293.804688 C 192.613281 293.519531 192.125 293.246094 191.65625 292.949219 C 191.171875 292.667969 190.714844 292.363281 190.207031 292.121094 L 188.710938 291.347656 C 188.460938 291.21875 188.21875 291.078125 187.960938 290.96875 L 187.183594 290.625 C 186.664062 290.402344 186.152344 290.160156 185.636719 289.925781 C 185.132812 289.671875 184.582031 289.5 184.054688 289.285156 L 180.734375 287.992188 C 179.554688 287.515625 178.367188 287.066406 177.21875 286.488281 L 175.480469 285.660156 C 175.191406 285.527344 174.910156 285.363281 174.628906 285.210938 L 173.78125 284.734375 C 173.222656 284.414062 172.660156 284.097656 172.105469 283.761719 L 170.480469 282.679688 L 169.667969 282.136719 C 169.394531 281.960938 169.144531 281.742188 168.886719 281.546875 C 168.367188 281.148438 167.851562 280.738281 167.34375 280.328125 C 163.328125 276.953125 159.949219 272.582031 158.042969 267.621094 C 157.582031 266.382812 157.167969 265.125 156.882812 263.84375 C 156.8125 263.519531 156.714844 263.207031 156.660156 262.886719 L 156.492188 261.917969 L 156.328125 260.957031 L 156.230469 259.984375 C 155.960938 257.402344 156.035156 254.824219 156.371094 252.316406 C 156.714844 249.808594 157.320312 247.375 158.148438 245.035156 C 158.988281 242.703125 160.015625 240.445312 161.359375 238.402344 C 160.128906 243.105469 159.585938 247.867188 159.785156 252.484375 C 159.984375 257.09375 161.050781 261.53125 163.042969 265.398438 L 163.835938 266.824219 C 164.113281 267.289062 164.429688 267.730469 164.722656 268.183594 C 165.003906 268.648438 165.355469 269.0625 165.679688 269.496094 L 166.167969 270.140625 C 166.324219 270.359375 166.527344 270.542969 166.703125 270.746094 C 167.070312 271.148438 167.421875 271.554688 167.792969 271.949219 C 168.191406 272.320312 168.578125 272.703125 168.96875 273.078125 C 169.339844 273.46875 169.78125 273.800781 170.199219 274.148438 L 170.828125 274.671875 C 171.039062 274.847656 171.238281 275.03125 171.472656 275.179688 C 172.390625 275.792969 173.226562 276.496094 174.195312 277.050781 L 175.609375 277.925781 C 176.097656 278.199219 176.597656 278.449219 177.089844 278.710938 C 177.589844 278.96875 178.058594 279.261719 178.574219 279.492188 L 180.109375 280.203125 C 181.117188 280.707031 182.195312 281.082031 183.25 281.507812 L 186.652344 282.875 C 187.832031 283.320312 188.988281 283.878906 190.144531 284.433594 L 191.003906 284.851562 C 191.296875 284.988281 191.566406 285.164062 191.851562 285.3125 L 193.535156 286.257812 C 194.101562 286.558594 194.636719 286.933594 195.183594 287.285156 C 195.730469 287.640625 196.265625 288.007812 196.804688 288.367188 L 198.359375 289.574219 L 199.128906 290.179688 L 199.863281 290.84375 C 200.351562 291.285156 200.847656 291.722656 201.316406 292.179688 L 202.671875 293.644531 C 203.132812 294.113281 203.527344 294.667969 203.941406 295.183594 L 204.550781 295.972656 C 204.757812 296.234375 204.929688 296.53125 205.117188 296.808594 L 205.65625 297.648438 C 205.835938 297.933594 206.023438 298.207031 206.171875 298.507812 L 207.109375 300.28125 C 207.375 300.894531 207.636719 301.511719 207.890625 302.128906 C 208.132812 302.746094 208.316406 303.390625 208.53125 304.023438 C 208.902344 305.296875 209.195312 306.589844 209.359375 307.894531 C 209.71875 310.5 209.671875 313.113281 209.316406 315.636719 C 208.949219 318.167969 208.261719 320.601562 207.332031 322.90625 C 206.875 324.066406 206.339844 325.1875 205.753906 326.269531 C 205.15625 327.347656 204.523438 328.402344 203.777344 329.371094 " fill-opacity="1" fill-rule="nonzero"/><g clip-path="url(#a5e7e5cc88)"><path fill="#eb1f39" d="M 149.792969 321.203125 C 149.449219 319.242188 149.441406 317.25 149.617188 315.269531 C 149.792969 313.289062 150.199219 311.316406 150.824219 309.382812 C 152.085938 305.527344 154.351562 301.804688 157.722656 298.785156 C 158.160156 298.425781 158.582031 298.042969 159.039062 297.699219 L 159.730469 297.179688 L 160.078125 296.921875 L 160.441406 296.683594 C 160.925781 296.359375 161.414062 296.03125 161.933594 295.753906 L 162.703125 295.316406 C 162.953125 295.171875 163.261719 295.042969 163.539062 294.902344 C 165.820312 293.804688 168.328125 293.152344 170.863281 292.808594 C 173.402344 292.472656 175.992188 292.488281 178.550781 292.753906 C 181.113281 293.039062 183.632812 293.652344 186.050781 294.5 C 188.460938 295.371094 190.757812 296.507812 192.855469 297.882812 C 194.933594 299.292969 196.785156 300.941406 198.339844 302.761719 C 199.910156 304.570312 201.121094 306.570312 202.023438 308.617188 C 202.984375 310.65625 203.453125 312.78125 203.832031 314.867188 C 204.398438 319.054688 203.957031 323.160156 202.882812 327.011719 L 202.464844 328.445312 C 202.300781 328.921875 202.125 329.390625 201.949219 329.855469 L 201.421875 331.253906 C 201.257812 331.71875 201.011719 332.164062 200.808594 332.621094 L 200.164062 333.96875 L 199.84375 334.636719 C 199.722656 334.859375 199.597656 335.070312 199.472656 335.292969 C 198.96875 336.160156 198.472656 337.023438 197.941406 337.871094 C 198.09375 336.894531 198.28125 335.941406 198.464844 334.996094 L 198.609375 334.285156 L 198.710938 333.566406 L 198.933594 332.140625 L 199.042969 331.429688 C 199.082031 331.195312 199.121094 330.960938 199.140625 330.71875 L 199.285156 329.292969 L 199.441406 327.882812 L 199.503906 326.464844 C 199.6875 322.703125 199.421875 318.976562 198.460938 315.457031 C 197.421875 311.96875 195.746094 308.683594 193.179688 306.023438 C 191.902344 304.695312 190.476562 303.472656 188.859375 302.460938 C 187.25 301.445312 185.496094 300.597656 183.648438 299.945312 C 181.808594 299.277344 179.871094 298.785156 177.902344 298.53125 C 175.9375 298.261719 173.949219 298.21875 172.019531 298.371094 C 170.085938 298.523438 168.222656 298.929688 166.539062 299.554688 C 166.328125 299.644531 166.117188 299.699219 165.902344 299.808594 L 165.246094 300.109375 C 164.804688 300.296875 164.398438 300.539062 163.96875 300.757812 L 163.648438 300.921875 L 163.34375 301.101562 L 162.730469 301.460938 C 162.324219 301.707031 161.941406 301.980469 161.542969 302.242188 C 158.449219 304.40625 155.925781 307.28125 154 310.535156 C 152.074219 313.796875 150.667969 317.394531 149.792969 321.203125 " fill-opacity="1" fill-rule="nonzero"/></g><path fill="#eb1f39" d="M 138.347656 281.261719 C 140.363281 275.722656 146.484375 272.871094 152.019531 274.886719 C 157.554688 276.902344 160.410156 283.019531 158.394531 288.554688 C 156.378906 294.09375 150.257812 296.945312 144.722656 294.929688 C 139.1875 292.917969 136.332031 286.796875 138.347656 281.261719 " fill-opacity="1" fill-rule="nonzero"/><path fill="#ef6f23" d="M 106.996094 307.238281 C 108.042969 306.605469 109.035156 305.925781 110 305.214844 C 110.964844 304.511719 111.894531 303.757812 112.78125 302.980469 C 114.558594 301.425781 116.195312 299.75 117.59375 297.9375 C 119 296.136719 120.175781 294.207031 121.078125 292.203125 C 121.523438 291.195312 121.898438 290.171875 122.210938 289.132812 C 122.34375 288.601562 122.507812 288.089844 122.613281 287.558594 C 122.703125 287.027344 122.808594 286.5 122.910156 285.96875 L 123.085938 284.367188 C 123.125 284.109375 123.121094 283.835938 123.128906 283.566406 L 123.148438 282.757812 C 123.148438 282.492188 123.175781 282.222656 123.160156 281.957031 L 123.121094 281.148438 C 123.089844 280.605469 123.097656 280.070312 123.007812 279.53125 L 122.804688 277.917969 L 122.484375 276.3125 L 122.328125 275.507812 L 122.105469 274.710938 L 121.667969 273.121094 C 121.488281 272.59375 121.292969 272.074219 121.121094 271.546875 C 120.9375 271.019531 120.777344 270.488281 120.546875 269.976562 L 119.898438 268.425781 C 119.785156 268.167969 119.695312 267.90625 119.566406 267.648438 L 119.191406 266.890625 C 118.9375 266.382812 118.699219 265.867188 118.457031 265.359375 C 118.230469 264.847656 117.921875 264.355469 117.660156 263.851562 L 115.945312 260.730469 C 115.34375 259.601562 114.722656 258.5 114.214844 257.316406 L 113.417969 255.566406 C 113.28125 255.277344 113.167969 254.96875 113.054688 254.671875 L 112.710938 253.765625 C 112.492188 253.15625 112.261719 252.554688 112.050781 251.945312 L 111.503906 250.066406 L 111.230469 249.132812 C 111.136719 248.820312 111.085938 248.492188 111.007812 248.175781 C 110.867188 247.53125 110.738281 246.890625 110.609375 246.246094 C 109.707031 241.085938 109.925781 235.5625 111.65625 230.539062 C 112.101562 229.292969 112.59375 228.0625 113.195312 226.898438 C 113.347656 226.601562 113.476562 226.304688 113.640625 226.019531 L 114.132812 225.171875 L 114.625 224.328125 L 115.175781 223.523438 C 116.628906 221.371094 118.339844 219.441406 120.207031 217.738281 C 122.085938 216.039062 124.113281 214.558594 126.253906 213.304688 C 128.394531 212.058594 130.632812 210.984375 132.972656 210.289062 C 129.011719 213.101562 125.53125 216.398438 122.71875 220.0625 C 119.910156 223.726562 117.875 227.804688 116.914062 232.050781 L 116.605469 233.652344 C 116.519531 234.1875 116.476562 234.726562 116.410156 235.261719 C 116.328125 235.796875 116.332031 236.34375 116.300781 236.878906 L 116.261719 237.6875 C 116.242188 237.953125 116.277344 238.226562 116.277344 238.5 C 116.304688 239.042969 116.308594 239.582031 116.339844 240.117188 C 116.410156 240.660156 116.460938 241.199219 116.515625 241.742188 C 116.550781 242.28125 116.671875 242.816406 116.769531 243.351562 L 116.914062 244.160156 C 116.96875 244.429688 117.003906 244.695312 117.085938 244.957031 C 117.390625 246.023438 117.578125 247.101562 117.96875 248.140625 L 118.488281 249.71875 C 118.6875 250.242188 118.910156 250.757812 119.117188 251.277344 C 119.335938 251.792969 119.503906 252.320312 119.75 252.828125 L 120.472656 254.359375 C 120.921875 255.390625 121.503906 256.375 122.042969 257.375 L 123.765625 260.605469 C 124.386719 261.710938 124.910156 262.886719 125.4375 264.050781 L 125.828125 264.925781 C 125.960938 265.210938 126.0625 265.523438 126.179688 265.824219 L 126.859375 267.632812 C 127.101562 268.222656 127.273438 268.855469 127.464844 269.480469 C 127.65625 270.097656 127.832031 270.726562 128.007812 271.347656 L 128.421875 273.269531 L 128.628906 274.226562 L 128.765625 275.207031 C 128.855469 275.859375 128.953125 276.511719 129.015625 277.167969 L 129.113281 279.160156 C 129.164062 279.820312 129.109375 280.492188 129.09375 281.152344 L 129.058594 282.152344 C 129.050781 282.484375 128.992188 282.816406 128.953125 283.152344 L 128.828125 284.144531 C 128.785156 284.472656 128.75 284.804688 128.667969 285.136719 L 128.25 287.097656 C 128.054688 287.742188 127.863281 288.378906 127.660156 289.011719 C 127.449219 289.640625 127.171875 290.253906 126.929688 290.871094 C 126.394531 292.089844 125.792969 293.269531 125.078125 294.371094 C 123.679688 296.601562 121.960938 298.570312 120.066406 300.277344 C 118.160156 301.980469 116.070312 303.40625 113.871094 304.570312 C 112.78125 305.164062 111.652344 305.679688 110.503906 306.132812 C 109.355469 306.574219 108.191406 306.980469 106.996094 307.238281 " fill-opacity="1" fill-rule="nonzero"/><path fill="#ef6f23" d="M 70.894531 266.277344 C 71.890625 264.550781 73.167969 263.027344 74.570312 261.617188 C 75.980469 260.222656 77.558594 258.96875 79.28125 257.890625 C 82.722656 255.746094 86.851562 254.351562 91.378906 254.207031 C 91.945312 254.207031 92.515625 254.1875 93.085938 254.214844 L 93.949219 254.265625 L 94.382812 254.292969 L 94.8125 254.339844 C 95.390625 254.410156 95.972656 254.46875 96.554688 254.585938 L 97.421875 254.746094 C 97.710938 254.796875 98.03125 254.898438 98.332031 254.96875 C 100.785156 255.59375 103.121094 256.707031 105.285156 258.074219 C 107.449219 259.445312 109.421875 261.128906 111.210938 262.972656 C 112.988281 264.835938 114.527344 266.925781 115.832031 269.128906 C 117.117188 271.347656 118.148438 273.695312 118.871094 276.101562 C 119.554688 278.515625 119.914062 280.96875 119.9375 283.359375 C 119.976562 285.75 119.617188 288.0625 118.992188 290.210938 C 118.421875 292.394531 117.417969 294.324219 116.359375 296.15625 C 114.101562 299.738281 111.128906 302.59375 107.828125 304.847656 L 106.582031 305.691406 C 106.15625 305.945312 105.722656 306.195312 105.285156 306.4375 L 103.980469 307.164062 C 103.554688 307.417969 103.085938 307.601562 102.632812 307.816406 L 101.277344 308.4375 L 100.597656 308.742188 C 100.363281 308.835938 100.128906 308.917969 99.894531 309.003906 C 98.953125 309.347656 98.015625 309.6875 97.0625 309.992188 C 97.808594 309.347656 98.5625 308.742188 99.316406 308.128906 L 99.882812 307.679688 L 100.421875 307.199219 L 101.507812 306.242188 L 102.046875 305.769531 C 102.230469 305.613281 102.414062 305.460938 102.578125 305.289062 L 103.605469 304.292969 L 104.632812 303.308594 L 105.589844 302.265625 C 108.148438 299.507812 110.34375 296.480469 111.867188 293.164062 C 113.316406 289.820312 114.144531 286.226562 113.886719 282.535156 C 113.761719 280.699219 113.453125 278.847656 112.867188 277.03125 C 112.289062 275.226562 111.488281 273.445312 110.492188 271.757812 C 109.511719 270.0625 108.34375 268.441406 106.996094 266.984375 C 105.671875 265.507812 104.171875 264.195312 102.597656 263.070312 C 101.015625 261.945312 99.332031 261.0625 97.636719 260.464844 C 97.417969 260.394531 97.222656 260.300781 96.984375 260.242188 L 96.289062 260.058594 C 95.828125 259.914062 95.363281 259.84375 94.898438 259.726562 L 94.546875 259.648438 L 94.195312 259.589844 L 93.492188 259.476562 C 93.023438 259.394531 92.554688 259.367188 92.085938 259.308594 C 88.320312 258.980469 84.542969 259.558594 80.972656 260.808594 C 77.398438 262.070312 74.007812 263.921875 70.894531 266.277344 " fill-opacity="1" fill-rule="nonzero"/><path fill="#ef6f23" d="M 87.800781 228.324219 C 92.902344 225.378906 99.425781 227.128906 102.371094 232.230469 C 105.316406 237.332031 103.566406 243.855469 98.464844 246.800781 C 93.363281 249.742188 86.839844 247.996094 83.894531 242.890625 C 80.949219 237.789062 82.699219 231.269531 87.800781 228.324219 " fill-opacity="1" fill-rule="nonzero"/><path fill="#f6eb16" d="M 47.085938 228.074219 C 48.292969 228.265625 49.492188 228.378906 50.6875 228.457031 C 51.882812 228.53125 53.074219 228.554688 54.253906 228.53125 C 56.613281 228.476562 58.941406 228.253906 61.179688 227.761719 C 63.414062 227.285156 65.554688 226.566406 67.535156 225.605469 C 68.527344 225.125 69.472656 224.578125 70.378906 223.984375 C 70.816406 223.660156 71.273438 223.375 71.699219 223.039062 C 72.109375 222.6875 72.527344 222.347656 72.945312 222.015625 L 74.109375 220.894531 C 74.3125 220.71875 74.484375 220.507812 74.660156 220.304688 L 75.195312 219.703125 C 75.367188 219.496094 75.558594 219.3125 75.722656 219.09375 L 76.210938 218.449219 C 76.53125 218.015625 76.886719 217.613281 77.160156 217.136719 L 78.039062 215.773438 L 78.828125 214.335938 L 79.226562 213.617188 L 79.566406 212.867188 L 80.253906 211.371094 C 80.457031 210.847656 80.640625 210.328125 80.847656 209.804688 C 81.042969 209.289062 81.261719 208.785156 81.417969 208.238281 L 81.917969 206.632812 C 81.996094 206.367188 82.097656 206.105469 82.160156 205.832031 L 82.359375 205.003906 C 82.492188 204.453125 82.640625 203.910156 82.785156 203.363281 C 82.941406 202.820312 83.019531 202.246094 83.140625 201.6875 L 83.835938 198.195312 C 84.101562 196.949219 84.335938 195.703125 84.707031 194.46875 L 85.21875 192.617188 C 85.296875 192.304688 85.410156 192.003906 85.515625 191.699219 L 85.835938 190.78125 C 86.058594 190.175781 86.269531 189.570312 86.5 188.960938 L 87.285156 187.175781 L 87.679688 186.277344 C 87.804688 185.984375 87.976562 185.699219 88.125 185.40625 C 88.429688 184.828125 88.742188 184.246094 89.058594 183.671875 C 91.683594 179.136719 95.402344 175.046875 99.957031 172.3125 C 101.101562 171.640625 102.265625 171.019531 103.476562 170.515625 C 103.78125 170.382812 104.074219 170.238281 104.382812 170.128906 L 105.304688 169.792969 L 106.222656 169.46875 L 107.164062 169.199219 C 109.660156 168.488281 112.207031 168.113281 114.738281 168.007812 C 117.265625 167.910156 119.773438 168.078125 122.21875 168.492188 C 124.660156 168.914062 127.058594 169.53125 129.304688 170.503906 C 124.460938 170.109375 119.675781 170.402344 115.167969 171.398438 C 110.660156 172.394531 106.476562 174.210938 103.011719 176.851562 L 101.746094 177.878906 C 101.339844 178.234375 100.957031 178.621094 100.5625 178.988281 C 100.15625 179.34375 99.808594 179.761719 99.4375 180.15625 L 98.890625 180.753906 C 98.703125 180.941406 98.550781 181.171875 98.378906 181.378906 C 98.050781 181.8125 97.710938 182.234375 97.386719 182.664062 C 97.09375 183.121094 96.78125 183.566406 96.480469 184.019531 C 96.160156 184.449219 95.90625 184.941406 95.636719 185.417969 L 95.230469 186.128906 C 95.097656 186.363281 94.953125 186.597656 94.84375 186.847656 C 94.398438 187.859375 93.847656 188.804688 93.476562 189.855469 L 92.859375 191.398438 C 92.679688 191.929688 92.515625 192.460938 92.34375 192.992188 C 92.179688 193.53125 91.96875 194.046875 91.828125 194.59375 L 91.398438 196.226562 C 91.078125 197.308594 90.890625 198.433594 90.660156 199.550781 L 89.902344 203.132812 C 89.667969 204.378906 89.320312 205.609375 88.972656 206.839844 L 88.710938 207.765625 C 88.628906 208.070312 88.503906 208.371094 88.402344 208.675781 L 87.761719 210.5 C 87.5625 211.113281 87.289062 211.707031 87.039062 212.300781 C 86.785156 212.902344 86.519531 213.492188 86.253906 214.085938 L 85.335938 215.828125 L 84.875 216.691406 L 84.351562 217.53125 C 83.996094 218.085938 83.65625 218.652344 83.28125 219.191406 L 82.078125 220.78125 C 81.695312 221.316406 81.21875 221.796875 80.78125 222.300781 L 80.113281 223.039062 C 79.890625 223.289062 79.628906 223.507812 79.390625 223.734375 L 78.652344 224.414062 C 78.40625 224.640625 78.167969 224.871094 77.894531 225.074219 L 76.3125 226.304688 C 75.753906 226.675781 75.195312 227.039062 74.628906 227.398438 C 74.0625 227.742188 73.460938 228.035156 72.875 228.347656 C 71.683594 228.9375 70.464844 229.457031 69.203125 229.84375 C 66.703125 230.648438 64.121094 231.054688 61.570312 231.136719 C 59.019531 231.21875 56.5 230.96875 54.066406 230.449219 C 52.847656 230.203125 51.652344 229.871094 50.484375 229.484375 C 49.320312 229.078125 48.167969 228.640625 47.085938 228.074219 " fill-opacity="1" fill-rule="nonzero"/><g clip-path="url(#cf4a09eb62)"><path fill="#f6eb16" d="M 45.757812 173.492188 C 47.628906 172.808594 49.589844 172.460938 51.570312 172.285156 C 53.550781 172.113281 55.5625 172.175781 57.574219 172.453125 C 61.589844 173.023438 65.648438 174.613281 69.214844 177.410156 C 69.644531 177.777344 70.09375 178.125 70.511719 178.511719 L 71.140625 179.105469 L 71.457031 179.402344 L 71.757812 179.71875 C 72.15625 180.140625 72.5625 180.558594 72.929688 181.027344 L 73.492188 181.710938 C 73.679688 181.933594 73.859375 182.214844 74.042969 182.460938 C 75.523438 184.515625 76.597656 186.875 77.375 189.3125 C 78.152344 191.753906 78.585938 194.308594 78.765625 196.871094 C 78.933594 199.445312 78.765625 202.035156 78.351562 204.5625 C 77.914062 207.085938 77.1875 209.546875 76.195312 211.851562 C 75.171875 214.136719 73.867188 216.253906 72.351562 218.097656 C 70.839844 219.957031 69.078125 221.496094 67.21875 222.742188 C 65.378906 224.046875 63.371094 224.875 61.382812 225.605469 C 57.351562 226.894531 53.234375 227.171875 49.253906 226.777344 L 47.765625 226.621094 C 47.273438 226.542969 46.78125 226.457031 46.289062 226.359375 L 44.824219 226.082031 C 44.335938 225.996094 43.855469 225.832031 43.371094 225.714844 L 41.933594 225.3125 L 41.21875 225.113281 C 40.980469 225.035156 40.742188 224.949219 40.507812 224.863281 C 39.566406 224.515625 38.628906 224.179688 37.703125 223.800781 C 38.6875 223.785156 39.660156 223.808594 40.625 223.824219 L 41.351562 223.839844 L 42.074219 223.8125 L 43.519531 223.785156 L 44.238281 223.769531 C 44.476562 223.769531 44.714844 223.761719 44.953125 223.742188 L 46.382812 223.636719 L 47.800781 223.546875 L 49.207031 223.359375 C 52.941406 222.890625 56.566406 221.984375 59.863281 220.417969 C 63.125 218.796875 66.066406 216.574219 68.238281 213.582031 C 69.324219 212.089844 70.28125 210.476562 70.996094 208.710938 C 71.71875 206.949219 72.25 205.074219 72.570312 203.140625 C 72.910156 201.214844 73.054688 199.21875 72.960938 197.238281 C 72.890625 195.253906 72.589844 193.289062 72.105469 191.414062 C 71.617188 189.535156 70.898438 187.769531 69.980469 186.226562 C 69.859375 186.027344 69.769531 185.832031 69.625 185.640625 L 69.214844 185.050781 C 68.949219 184.640625 68.640625 184.285156 68.355469 183.902344 L 68.136719 183.613281 L 67.90625 183.347656 L 67.445312 182.804688 C 67.132812 182.445312 66.792969 182.117188 66.472656 181.769531 C 63.800781 179.097656 60.53125 177.113281 56.992188 175.78125 C 53.445312 174.449219 49.65625 173.691406 45.757812 173.492188 " fill-opacity="1" fill-rule="nonzero"/></g><path fill="#f6eb16" d="M 83.105469 155.277344 C 88.90625 156.308594 92.777344 161.839844 91.757812 167.640625 C 90.734375 173.4375 85.203125 177.316406 79.398438 176.289062 C 73.597656 175.269531 69.726562 169.734375 70.746094 163.933594 C 71.769531 158.132812 77.300781 154.257812 83.105469 155.277344 " fill-opacity="1" fill-rule="nonzero"/></svg>