<svg xmlns="http://www.w3.org/2000/svg" xmlns:xlink="http://www.w3.org/1999/xlink" width="1024" zoomAndPan="magnify" viewBox="0 0 768 576" height="768" preserveAspectRatio="xMidYMid meet" version="1.0"><defs><g/><clipPath id="93f20031f6"><path d="M 311 225 L 599.859375 225 L 599.859375 495.375 L 311 495.375 Z M 311 225 " clip-rule="nonzero"/></clipPath><clipPath id="5c8dbd7785"><path d="M 237 80.238281 L 526 80.238281 L 526 349 L 237 349 Z M 237 80.238281 " clip-rule="nonzero"/></clipPath><clipPath id="8272ae4dec"><path d="M 167.859375 207 L 384 207 L 384 495.375 L 167.859375 495.375 Z M 167.859375 207 " clip-rule="nonzero"/></clipPath></defs><g clip-path="url(#93f20031f6)"><path fill="#545454" d="M 525.683594 225.132812 C 525.542969 277.328125 497.648438 323 455.972656 348.167969 C 434.257812 361.273438 408.808594 368.828125 381.597656 368.828125 C 356.335938 368.828125 332.609375 362.3125 311.960938 350.882812 C 311.960938 351.023438 311.953125 351.152344 311.953125 351.28125 C 311.953125 404.609375 340.941406 451.132812 384 476.050781 C 405.203125 488.324219 429.789062 495.375 456.046875 495.375 C 535.625 495.375 600.136719 430.863281 600.136719 351.28125 C 600.136719 296.964844 570.074219 249.683594 525.683594 225.132812 " fill-opacity="1" fill-rule="nonzero"/></g><g clip-path="url(#5c8dbd7785)"><path fill="#b40505" d="M 381.597656 80.632812 C 302.019531 80.632812 237.507812 145.152344 237.507812 224.734375 C 237.507812 225.78125 237.5625 226.808594 237.589844 227.855469 C 259.296875 214.742188 284.742188 207.191406 311.953125 207.191406 C 338.207031 207.191406 362.804688 214.253906 384 226.511719 C 426.214844 250.941406 454.859375 296.148438 455.972656 348.167969 C 497.648438 323 525.542969 277.328125 525.683594 225.132812 C 525.683594 224.992188 525.691406 224.863281 525.691406 224.734375 C 525.691406 145.152344 461.179688 80.632812 381.597656 80.632812 " fill-opacity="1" fill-rule="nonzero"/></g><g clip-path="url(#8272ae4dec)"><path fill="#000000" d="M 311.953125 351.28125 C 311.953125 351.152344 311.960938 351.023438 311.960938 350.882812 C 312.109375 297.726562 341.054688 251.367188 384 226.511719 C 362.804688 214.253906 338.207031 207.191406 311.953125 207.191406 C 284.742188 207.191406 259.296875 214.742188 237.589844 227.855469 C 195.804688 253.082031 167.859375 298.921875 167.859375 351.28125 C 167.859375 430.863281 232.371094 495.375 311.953125 495.375 C 338.207031 495.375 362.804688 488.324219 384 476.050781 C 340.941406 451.132812 311.953125 404.609375 311.953125 351.28125 " fill-opacity="1" fill-rule="nonzero"/></g><g fill="#ffffff" fill-opacity="1"><g transform="translate(316.538853, 155.58606)"><g><path d="M 1.40625 -14.0625 L 2.921875 -14.0625 L 10.671875 -2.671875 L 10.671875 -14.0625 L 12.234375 -14.0625 L 12.234375 0 L 10.734375 0 L 2.984375 -11.40625 L 2.984375 0 L 1.40625 0 Z M 1.40625 -14.0625 "/></g></g></g><g fill="#ffffff" fill-opacity="1"><g transform="translate(330.184761, 155.58606)"><g><path d="M 6.59375 0.296875 C 4.84375 0.296875 3.472656 -0.148438 2.484375 -1.046875 C 1.492188 -1.941406 1 -3.195312 1 -4.8125 C 1 -6.394531 1.441406 -7.648438 2.328125 -8.578125 C 3.210938 -9.503906 4.476562 -9.96875 6.125 -9.96875 C 7.21875 -9.96875 8.144531 -9.753906 8.90625 -9.328125 C 9.675781 -8.898438 10.253906 -8.316406 10.640625 -7.578125 C 11.035156 -6.847656 11.234375 -6.015625 11.234375 -5.078125 L 11.234375 -4.21875 L 2.453125 -4.21875 C 2.503906 -3.125 2.910156 -2.300781 3.671875 -1.75 C 4.429688 -1.195312 5.460938 -0.921875 6.765625 -0.921875 C 7.390625 -0.921875 8.007812 -0.976562 8.625 -1.09375 C 9.238281 -1.207031 9.785156 -1.363281 10.265625 -1.5625 L 10.265625 -0.265625 C 9.859375 -0.0976562 9.3125 0.0351562 8.625 0.140625 C 7.9375 0.242188 7.257812 0.296875 6.59375 0.296875 Z M 9.78125 -5.328125 C 9.75 -6.378906 9.425781 -7.207031 8.8125 -7.8125 C 8.195312 -8.414062 7.289062 -8.71875 6.09375 -8.71875 C 4.925781 -8.71875 4.035156 -8.40625 3.421875 -7.78125 C 2.804688 -7.15625 2.484375 -6.335938 2.453125 -5.328125 Z M 9.78125 -5.328125 "/></g></g></g><g fill="#ffffff" fill-opacity="1"><g transform="translate(342.421795, 155.58606)"><g><path d="M 5.3125 0.296875 C 4.019531 0.296875 3.03125 -0.0507812 2.34375 -0.75 C 1.65625 -1.445312 1.3125 -2.378906 1.3125 -3.546875 L 1.3125 -9.65625 L 2.859375 -9.65625 L 2.859375 -3.46875 C 2.859375 -1.769531 3.738281 -0.921875 5.5 -0.921875 C 6.226562 -0.921875 6.867188 -1.082031 7.421875 -1.40625 C 7.984375 -1.726562 8.488281 -2.238281 8.9375 -2.9375 L 8.9375 -9.65625 L 10.484375 -9.65625 L 10.484375 0 L 8.96875 0 L 8.96875 -1.453125 C 8.101562 -0.285156 6.882812 0.296875 5.3125 0.296875 Z M 5.3125 0.296875 "/></g></g></g><g fill="#ffffff" fill-opacity="1"><g transform="translate(354.316675, 155.58606)"><g><path d="M 1.40625 -9.65625 L 2.921875 -9.65625 L 2.921875 -7.765625 C 3.691406 -9.023438 5.144531 -9.65625 7.28125 -9.65625 L 7.28125 -8.40625 C 4.945312 -8.40625 3.503906 -7.632812 2.953125 -6.09375 L 2.953125 0 L 1.40625 0 Z M 1.40625 -9.65625 "/></g></g></g><g fill="#ffffff" fill-opacity="1"><g transform="translate(362.206347, 155.58606)"><g><path d="M 6.359375 0.296875 C 5.316406 0.296875 4.390625 0.0859375 3.578125 -0.328125 C 2.765625 -0.742188 2.128906 -1.335938 1.671875 -2.109375 C 1.222656 -2.878906 1 -3.78125 1 -4.8125 C 1 -5.832031 1.226562 -6.726562 1.6875 -7.5 C 2.144531 -8.28125 2.78125 -8.882812 3.59375 -9.3125 C 4.40625 -9.75 5.328125 -9.96875 6.359375 -9.96875 C 7.390625 -9.96875 8.3125 -9.75 9.125 -9.3125 C 9.9375 -8.882812 10.570312 -8.28125 11.03125 -7.5 C 11.488281 -6.726562 11.71875 -5.832031 11.71875 -4.8125 C 11.71875 -3.78125 11.488281 -2.878906 11.03125 -2.109375 C 10.582031 -1.335938 9.953125 -0.742188 9.140625 -0.328125 C 8.328125 0.0859375 7.398438 0.296875 6.359375 0.296875 Z M 6.359375 -0.921875 C 7.515625 -0.921875 8.4375 -1.269531 9.125 -1.96875 C 9.8125 -2.675781 10.15625 -3.625 10.15625 -4.8125 C 10.15625 -6 9.8125 -6.945312 9.125 -7.65625 C 8.4375 -8.363281 7.515625 -8.71875 6.359375 -8.71875 C 5.203125 -8.71875 4.28125 -8.363281 3.59375 -7.65625 C 2.90625 -6.945312 2.5625 -6 2.5625 -4.8125 C 2.5625 -3.625 2.90625 -2.675781 3.59375 -1.96875 C 4.28125 -1.269531 5.203125 -0.921875 6.359375 -0.921875 Z M 6.359375 -0.921875 "/></g></g></g><g fill="#ffffff" fill-opacity="1"><g transform="translate(374.926428, 155.58606)"><g><path d="M 2.375 -11.75 C 2.101562 -11.75 1.875 -11.84375 1.6875 -12.03125 C 1.5 -12.21875 1.40625 -12.445312 1.40625 -12.71875 C 1.40625 -12.988281 1.5 -13.21875 1.6875 -13.40625 C 1.875 -13.59375 2.101562 -13.6875 2.375 -13.6875 C 2.644531 -13.6875 2.875 -13.59375 3.0625 -13.40625 C 3.257812 -13.21875 3.359375 -12.988281 3.359375 -12.71875 C 3.359375 -12.445312 3.257812 -12.21875 3.0625 -12.03125 C 2.875 -11.84375 2.644531 -11.75 2.375 -11.75 Z M 1.609375 -9.65625 L 3.15625 -9.65625 L 3.15625 0 L 1.609375 0 Z M 1.609375 -9.65625 "/></g></g></g><g fill="#ffffff" fill-opacity="1"><g transform="translate(379.696454, 155.58606)"><g><path d="M 1.40625 -9.65625 L 2.890625 -9.65625 L 2.890625 -8.15625 C 3.816406 -9.363281 4.96875 -9.96875 6.34375 -9.96875 C 7.144531 -9.96875 7.769531 -9.820312 8.21875 -9.53125 C 8.664062 -9.25 8.992188 -8.828125 9.203125 -8.265625 C 9.628906 -8.847656 10.160156 -9.273438 10.796875 -9.546875 C 11.429688 -9.828125 12.085938 -9.96875 12.765625 -9.96875 C 13.910156 -9.96875 14.742188 -9.671875 15.265625 -9.078125 C 15.796875 -8.484375 16.0625 -7.609375 16.0625 -6.453125 L 16.0625 0 L 14.53125 0 L 14.53125 -6.28125 C 14.53125 -7.175781 14.367188 -7.804688 14.046875 -8.171875 C 13.734375 -8.535156 13.175781 -8.71875 12.375 -8.71875 C 11.21875 -8.71875 10.265625 -8.203125 9.515625 -7.171875 C 9.554688 -6.972656 9.578125 -6.660156 9.578125 -6.234375 L 9.578125 0 L 8.0625 0 L 8.0625 -6.234375 C 8.0625 -7.140625 7.914062 -7.78125 7.625 -8.15625 C 7.332031 -8.53125 6.785156 -8.71875 5.984375 -8.71875 C 4.828125 -8.71875 3.8125 -8.070312 2.9375 -6.78125 L 2.9375 0 L 1.40625 0 Z M 1.40625 -9.65625 "/></g></g></g><g fill="#ffffff" fill-opacity="1"><g transform="translate(397.065796, 155.58606)"><g><path d="M 4.796875 0.296875 C 3.617188 0.296875 2.691406 0.00390625 2.015625 -0.578125 C 1.335938 -1.160156 1 -1.960938 1 -2.984375 C 1 -4.035156 1.328125 -4.847656 1.984375 -5.421875 C 2.648438 -5.992188 3.601562 -6.28125 4.84375 -6.28125 C 6.238281 -6.28125 7.441406 -5.988281 8.453125 -5.40625 L 8.453125 -6.140625 C 8.453125 -7.015625 8.203125 -7.660156 7.703125 -8.078125 C 7.210938 -8.503906 6.429688 -8.71875 5.359375 -8.71875 C 4.210938 -8.71875 3.15625 -8.5 2.1875 -8.0625 L 2.1875 -9.375 C 2.59375 -9.550781 3.101562 -9.691406 3.71875 -9.796875 C 4.34375 -9.910156 4.9375 -9.96875 5.5 -9.96875 C 7.019531 -9.96875 8.148438 -9.617188 8.890625 -8.921875 C 9.628906 -8.234375 10 -7.28125 10 -6.0625 L 10 0 L 8.546875 0 L 8.546875 -1.25 C 7.703125 -0.21875 6.453125 0.296875 4.796875 0.296875 Z M 5.171875 -0.96875 C 5.898438 -0.96875 6.554688 -1.109375 7.140625 -1.390625 C 7.722656 -1.679688 8.160156 -2.085938 8.453125 -2.609375 L 8.453125 -4.171875 C 7.929688 -4.472656 7.410156 -4.691406 6.890625 -4.828125 C 6.378906 -4.972656 5.800781 -5.046875 5.15625 -5.046875 C 4.238281 -5.046875 3.578125 -4.875 3.171875 -4.53125 C 2.765625 -4.195312 2.5625 -3.679688 2.5625 -2.984375 C 2.5625 -1.640625 3.429688 -0.96875 5.171875 -0.96875 Z M 5.171875 -0.96875 "/></g></g></g><g fill="#ffffff" fill-opacity="1"><g transform="translate(408.377004, 155.58606)"><g><path d="M 6.40625 4.625 C 5.757812 4.625 5.125 4.570312 4.5 4.46875 C 3.882812 4.363281 3.363281 4.21875 2.9375 4.03125 L 2.9375 2.71875 C 3.957031 3.175781 5.113281 3.40625 6.40625 3.40625 C 7.71875 3.40625 8.6875 3.101562 9.3125 2.5 C 9.9375 1.90625 10.25 1.003906 10.25 -0.203125 L 10.25 -1.625 C 9.375 -0.34375 7.988281 0.296875 6.09375 0.296875 C 5.144531 0.296875 4.28125 0.0859375 3.5 -0.328125 C 2.71875 -0.753906 2.101562 -1.351562 1.65625 -2.125 C 1.21875 -2.90625 1 -3.800781 1 -4.8125 C 1 -5.832031 1.21875 -6.726562 1.65625 -7.5 C 2.101562 -8.28125 2.707031 -8.882812 3.46875 -9.3125 C 4.238281 -9.75 5.101562 -9.96875 6.0625 -9.96875 C 7.050781 -9.96875 7.875 -9.816406 8.53125 -9.515625 C 9.1875 -9.210938 9.769531 -8.71875 10.28125 -8.03125 L 10.28125 -9.65625 L 11.796875 -9.65625 L 11.796875 -0.40625 C 11.796875 1.226562 11.351562 2.472656 10.46875 3.328125 C 9.582031 4.191406 8.226562 4.625 6.40625 4.625 Z M 6.375 -0.921875 C 7.332031 -0.921875 8.148438 -1.160156 8.828125 -1.640625 C 9.515625 -2.128906 9.988281 -2.796875 10.25 -3.640625 L 10.25 -6.03125 C 9.976562 -6.882812 9.5 -7.546875 8.8125 -8.015625 C 8.125 -8.484375 7.3125 -8.71875 6.375 -8.71875 C 5.664062 -8.71875 5.019531 -8.550781 4.4375 -8.21875 C 3.851562 -7.894531 3.394531 -7.4375 3.0625 -6.84375 C 2.726562 -6.25 2.5625 -5.570312 2.5625 -4.8125 C 2.5625 -4.03125 2.726562 -3.347656 3.0625 -2.765625 C 3.394531 -2.179688 3.851562 -1.726562 4.4375 -1.40625 C 5.019531 -1.082031 5.664062 -0.921875 6.375 -0.921875 Z M 6.375 -0.921875 "/></g></g></g><g fill="#ffffff" fill-opacity="1"><g transform="translate(421.58012, 155.58606)"><g><path d="M 2.375 -11.75 C 2.101562 -11.75 1.875 -11.84375 1.6875 -12.03125 C 1.5 -12.21875 1.40625 -12.445312 1.40625 -12.71875 C 1.40625 -12.988281 1.5 -13.21875 1.6875 -13.40625 C 1.875 -13.59375 2.101562 -13.6875 2.375 -13.6875 C 2.644531 -13.6875 2.875 -13.59375 3.0625 -13.40625 C 3.257812 -13.21875 3.359375 -12.988281 3.359375 -12.71875 C 3.359375 -12.445312 3.257812 -12.21875 3.0625 -12.03125 C 2.875 -11.84375 2.644531 -11.75 2.375 -11.75 Z M 1.609375 -9.65625 L 3.15625 -9.65625 L 3.15625 0 L 1.609375 0 Z M 1.609375 -9.65625 "/></g></g></g><g fill="#ffffff" fill-opacity="1"><g transform="translate(426.350146, 155.58606)"><g><path d="M 1.40625 -9.65625 L 2.921875 -9.65625 L 2.921875 -8.21875 C 3.390625 -8.8125 3.960938 -9.25 4.640625 -9.53125 C 5.316406 -9.820312 6.035156 -9.96875 6.796875 -9.96875 C 8.078125 -9.96875 9.023438 -9.628906 9.640625 -8.953125 C 10.265625 -8.285156 10.578125 -7.390625 10.578125 -6.265625 L 10.578125 0 L 9.03125 0 L 9.03125 -6.125 C 9.03125 -6.945312 8.828125 -7.582031 8.421875 -8.03125 C 8.023438 -8.488281 7.382812 -8.71875 6.5 -8.71875 C 5.007812 -8.71875 3.828125 -8.046875 2.953125 -6.703125 L 2.953125 0 L 1.40625 0 Z M 1.40625 -9.65625 "/></g></g></g><g fill="#ffffff" fill-opacity="1"><g transform="translate(438.245025, 155.58606)"><g><path d="M 6.40625 4.625 C 5.757812 4.625 5.125 4.570312 4.5 4.46875 C 3.882812 4.363281 3.363281 4.21875 2.9375 4.03125 L 2.9375 2.71875 C 3.957031 3.175781 5.113281 3.40625 6.40625 3.40625 C 7.71875 3.40625 8.6875 3.101562 9.3125 2.5 C 9.9375 1.90625 10.25 1.003906 10.25 -0.203125 L 10.25 -1.625 C 9.375 -0.34375 7.988281 0.296875 6.09375 0.296875 C 5.144531 0.296875 4.28125 0.0859375 3.5 -0.328125 C 2.71875 -0.753906 2.101562 -1.351562 1.65625 -2.125 C 1.21875 -2.90625 1 -3.800781 1 -4.8125 C 1 -5.832031 1.21875 -6.726562 1.65625 -7.5 C 2.101562 -8.28125 2.707031 -8.882812 3.46875 -9.3125 C 4.238281 -9.75 5.101562 -9.96875 6.0625 -9.96875 C 7.050781 -9.96875 7.875 -9.816406 8.53125 -9.515625 C 9.1875 -9.210938 9.769531 -8.71875 10.28125 -8.03125 L 10.28125 -9.65625 L 11.796875 -9.65625 L 11.796875 -0.40625 C 11.796875 1.226562 11.351562 2.472656 10.46875 3.328125 C 9.582031 4.191406 8.226562 4.625 6.40625 4.625 Z M 6.375 -0.921875 C 7.332031 -0.921875 8.148438 -1.160156 8.828125 -1.640625 C 9.515625 -2.128906 9.988281 -2.796875 10.25 -3.640625 L 10.25 -6.03125 C 9.976562 -6.882812 9.5 -7.546875 8.8125 -8.015625 C 8.125 -8.484375 7.3125 -8.71875 6.375 -8.71875 C 5.664062 -8.71875 5.019531 -8.550781 4.4375 -8.21875 C 3.851562 -7.894531 3.394531 -7.4375 3.0625 -6.84375 C 2.726562 -6.25 2.5625 -5.570312 2.5625 -4.8125 C 2.5625 -4.03125 2.726562 -3.347656 3.0625 -2.765625 C 3.394531 -2.179688 3.851562 -1.726562 4.4375 -1.40625 C 5.019531 -1.082031 5.664062 -0.921875 6.375 -0.921875 Z M 6.375 -0.921875 "/></g></g></g><g fill="#ffffff" fill-opacity="1"><g transform="translate(328.702221, 183.522874)"><g><path d="M 5.109375 -12.734375 L 0.609375 -12.734375 L 0.609375 -14.0625 L 11.1875 -14.0625 L 11.1875 -12.734375 L 6.6875 -12.734375 L 6.6875 0 L 5.109375 0 Z M 5.109375 -12.734375 "/></g></g></g><g fill="#ffffff" fill-opacity="1"><g transform="translate(340.496464, 183.522874)"><g><path d="M 6.59375 0.296875 C 4.84375 0.296875 3.472656 -0.148438 2.484375 -1.046875 C 1.492188 -1.941406 1 -3.195312 1 -4.8125 C 1 -6.394531 1.441406 -7.648438 2.328125 -8.578125 C 3.210938 -9.503906 4.476562 -9.96875 6.125 -9.96875 C 7.21875 -9.96875 8.144531 -9.753906 8.90625 -9.328125 C 9.675781 -8.898438 10.253906 -8.316406 10.640625 -7.578125 C 11.035156 -6.847656 11.234375 -6.015625 11.234375 -5.078125 L 11.234375 -4.21875 L 2.453125 -4.21875 C 2.503906 -3.125 2.910156 -2.300781 3.671875 -1.75 C 4.429688 -1.195312 5.460938 -0.921875 6.765625 -0.921875 C 7.390625 -0.921875 8.007812 -0.976562 8.625 -1.09375 C 9.238281 -1.207031 9.785156 -1.363281 10.265625 -1.5625 L 10.265625 -0.265625 C 9.859375 -0.0976562 9.3125 0.0351562 8.625 0.140625 C 7.9375 0.242188 7.257812 0.296875 6.59375 0.296875 Z M 9.78125 -5.328125 C 9.75 -6.378906 9.425781 -7.207031 8.8125 -7.8125 C 8.195312 -8.414062 7.289062 -8.71875 6.09375 -8.71875 C 4.925781 -8.71875 4.035156 -8.40625 3.421875 -7.78125 C 2.804688 -7.15625 2.484375 -6.335938 2.453125 -5.328125 Z M 9.78125 -5.328125 "/></g></g></g><g fill="#ffffff" fill-opacity="1"><g transform="translate(352.733498, 183.522874)"><g><path d="M 6.34375 0.296875 C 5.320312 0.296875 4.40625 0.09375 3.59375 -0.3125 C 2.78125 -0.71875 2.144531 -1.304688 1.6875 -2.078125 C 1.226562 -2.847656 1 -3.757812 1 -4.8125 C 1 -5.84375 1.226562 -6.75 1.6875 -7.53125 C 2.15625 -8.320312 2.796875 -8.925781 3.609375 -9.34375 C 4.429688 -9.757812 5.363281 -9.96875 6.40625 -9.96875 C 7.132812 -9.96875 7.78125 -9.898438 8.34375 -9.765625 C 8.914062 -9.628906 9.421875 -9.410156 9.859375 -9.109375 L 9.859375 -7.8125 C 9.015625 -8.414062 7.910156 -8.71875 6.546875 -8.71875 C 5.359375 -8.71875 4.394531 -8.375 3.65625 -7.6875 C 2.925781 -7 2.5625 -6.039062 2.5625 -4.8125 C 2.5625 -3.570312 2.925781 -2.613281 3.65625 -1.9375 C 4.394531 -1.257812 5.335938 -0.921875 6.484375 -0.921875 C 7.191406 -0.921875 7.828125 -1 8.390625 -1.15625 C 8.953125 -1.320312 9.488281 -1.570312 10 -1.90625 L 10 -0.609375 C 9.53125 -0.285156 9.003906 -0.0546875 8.421875 0.078125 C 7.835938 0.222656 7.144531 0.296875 6.34375 0.296875 Z M 6.34375 0.296875 "/></g></g></g><g fill="#ffffff" fill-opacity="1"><g transform="translate(363.742806, 183.522874)"><g><path d="M 1.40625 -14.875 L 2.953125 -14.875 L 2.953125 -8.25 C 3.878906 -9.394531 5.160156 -9.96875 6.796875 -9.96875 C 8.078125 -9.96875 9.023438 -9.628906 9.640625 -8.953125 C 10.265625 -8.285156 10.578125 -7.390625 10.578125 -6.265625 L 10.578125 0 L 9.03125 0 L 9.03125 -6.125 C 9.03125 -6.945312 8.828125 -7.582031 8.421875 -8.03125 C 8.023438 -8.488281 7.382812 -8.71875 6.5 -8.71875 C 5.007812 -8.71875 3.828125 -8.046875 2.953125 -6.703125 L 2.953125 0 L 1.40625 0 Z M 1.40625 -14.875 "/></g></g></g><g fill="#ffffff" fill-opacity="1"><g transform="translate(375.637685, 183.522874)"><g><path d="M 1.40625 -9.65625 L 2.921875 -9.65625 L 2.921875 -8.21875 C 3.390625 -8.8125 3.960938 -9.25 4.640625 -9.53125 C 5.316406 -9.820312 6.035156 -9.96875 6.796875 -9.96875 C 8.078125 -9.96875 9.023438 -9.628906 9.640625 -8.953125 C 10.265625 -8.285156 10.578125 -7.390625 10.578125 -6.265625 L 10.578125 0 L 9.03125 0 L 9.03125 -6.125 C 9.03125 -6.945312 8.828125 -7.582031 8.421875 -8.03125 C 8.023438 -8.488281 7.382812 -8.71875 6.5 -8.71875 C 5.007812 -8.71875 3.828125 -8.046875 2.953125 -6.703125 L 2.953125 0 L 1.40625 0 Z M 1.40625 -9.65625 "/></g></g></g><g fill="#ffffff" fill-opacity="1"><g transform="translate(387.532565, 183.522874)"><g><path d="M 2.375 -11.75 C 2.101562 -11.75 1.875 -11.84375 1.6875 -12.03125 C 1.5 -12.21875 1.40625 -12.445312 1.40625 -12.71875 C 1.40625 -12.988281 1.5 -13.21875 1.6875 -13.40625 C 1.875 -13.59375 2.101562 -13.6875 2.375 -13.6875 C 2.644531 -13.6875 2.875 -13.59375 3.0625 -13.40625 C 3.257812 -13.21875 3.359375 -12.988281 3.359375 -12.71875 C 3.359375 -12.445312 3.257812 -12.21875 3.0625 -12.03125 C 2.875 -11.84375 2.644531 -11.75 2.375 -11.75 Z M 1.609375 -9.65625 L 3.15625 -9.65625 L 3.15625 0 L 1.609375 0 Z M 1.609375 -9.65625 "/></g></g></g><g fill="#ffffff" fill-opacity="1"><g transform="translate(392.302591, 183.522874)"><g><path d="M 10.25 -1.625 C 9.832031 -1 9.242188 -0.519531 8.484375 -0.1875 C 7.734375 0.132812 6.925781 0.296875 6.0625 0.296875 C 5.101562 0.296875 4.238281 0.0859375 3.46875 -0.328125 C 2.695312 -0.753906 2.09375 -1.351562 1.65625 -2.125 C 1.21875 -2.90625 1 -3.800781 1 -4.8125 C 1 -5.832031 1.21875 -6.726562 1.65625 -7.5 C 2.101562 -8.28125 2.707031 -8.882812 3.46875 -9.3125 C 4.238281 -9.75 5.101562 -9.96875 6.0625 -9.96875 C 7.925781 -9.96875 9.332031 -9.304688 10.28125 -7.984375 L 10.28125 -9.65625 L 11.796875 -9.65625 L 11.796875 4.40625 L 10.25 4.40625 Z M 6.375 -0.921875 C 7.289062 -0.921875 8.097656 -1.171875 8.796875 -1.671875 C 9.503906 -2.171875 9.988281 -2.828125 10.25 -3.640625 L 10.25 -6.03125 C 9.96875 -6.863281 9.476562 -7.519531 8.78125 -8 C 8.09375 -8.476562 7.289062 -8.71875 6.375 -8.71875 C 5.65625 -8.71875 5.003906 -8.554688 4.421875 -8.234375 C 3.835938 -7.910156 3.378906 -7.445312 3.046875 -6.84375 C 2.722656 -6.25 2.5625 -5.570312 2.5625 -4.8125 C 2.5625 -4.03125 2.722656 -3.347656 3.046875 -2.765625 C 3.378906 -2.179688 3.835938 -1.726562 4.421875 -1.40625 C 5.003906 -1.082031 5.65625 -0.921875 6.375 -0.921875 Z M 6.375 -0.921875 "/></g></g></g><g fill="#ffffff" fill-opacity="1"><g transform="translate(405.505707, 183.522874)"><g><path d="M 5.3125 0.296875 C 4.019531 0.296875 3.03125 -0.0507812 2.34375 -0.75 C 1.65625 -1.445312 1.3125 -2.378906 1.3125 -3.546875 L 1.3125 -9.65625 L 2.859375 -9.65625 L 2.859375 -3.46875 C 2.859375 -1.769531 3.738281 -0.921875 5.5 -0.921875 C 6.226562 -0.921875 6.867188 -1.082031 7.421875 -1.40625 C 7.984375 -1.726562 8.488281 -2.238281 8.9375 -2.9375 L 8.9375 -9.65625 L 10.484375 -9.65625 L 10.484375 0 L 8.96875 0 L 8.96875 -1.453125 C 8.101562 -0.285156 6.882812 0.296875 5.3125 0.296875 Z M 5.3125 0.296875 "/></g></g></g><g fill="#ffffff" fill-opacity="1"><g transform="translate(417.400587, 183.522874)"><g><path d="M 6.59375 0.296875 C 4.84375 0.296875 3.472656 -0.148438 2.484375 -1.046875 C 1.492188 -1.941406 1 -3.195312 1 -4.8125 C 1 -6.394531 1.441406 -7.648438 2.328125 -8.578125 C 3.210938 -9.503906 4.476562 -9.96875 6.125 -9.96875 C 7.21875 -9.96875 8.144531 -9.753906 8.90625 -9.328125 C 9.675781 -8.898438 10.253906 -8.316406 10.640625 -7.578125 C 11.035156 -6.847656 11.234375 -6.015625 11.234375 -5.078125 L 11.234375 -4.21875 L 2.453125 -4.21875 C 2.503906 -3.125 2.910156 -2.300781 3.671875 -1.75 C 4.429688 -1.195312 5.460938 -0.921875 6.765625 -0.921875 C 7.390625 -0.921875 8.007812 -0.976562 8.625 -1.09375 C 9.238281 -1.207031 9.785156 -1.363281 10.265625 -1.5625 L 10.265625 -0.265625 C 9.859375 -0.0976562 9.3125 0.0351562 8.625 0.140625 C 7.9375 0.242188 7.257812 0.296875 6.59375 0.296875 Z M 9.78125 -5.328125 C 9.75 -6.378906 9.425781 -7.207031 8.8125 -7.8125 C 8.195312 -8.414062 7.289062 -8.71875 6.09375 -8.71875 C 4.925781 -8.71875 4.035156 -8.40625 3.421875 -7.78125 C 2.804688 -7.15625 2.484375 -6.335938 2.453125 -5.328125 Z M 9.78125 -5.328125 "/></g></g></g><g fill="#ffffff" fill-opacity="1"><g transform="translate(429.637621, 183.522874)"><g><path d="M 4.765625 0.296875 C 4.140625 0.296875 3.460938 0.207031 2.734375 0.03125 C 2.015625 -0.144531 1.453125 -0.367188 1.046875 -0.640625 L 1.046875 -1.953125 C 1.554688 -1.640625 2.140625 -1.390625 2.796875 -1.203125 C 3.460938 -1.015625 4.109375 -0.921875 4.734375 -0.921875 C 5.566406 -0.921875 6.164062 -1.035156 6.53125 -1.265625 C 6.894531 -1.503906 7.078125 -1.859375 7.078125 -2.328125 C 7.078125 -2.691406 6.992188 -2.976562 6.828125 -3.1875 C 6.671875 -3.394531 6.40625 -3.578125 6.03125 -3.734375 C 5.65625 -3.898438 5.070312 -4.09375 4.28125 -4.3125 C 3.507812 -4.519531 2.890625 -4.738281 2.421875 -4.96875 C 1.960938 -5.207031 1.609375 -5.507812 1.359375 -5.875 C 1.117188 -6.238281 1 -6.703125 1 -7.265625 C 1 -8.140625 1.351562 -8.804688 2.0625 -9.265625 C 2.769531 -9.734375 3.707031 -9.96875 4.875 -9.96875 C 5.5 -9.96875 6.085938 -9.910156 6.640625 -9.796875 C 7.203125 -9.679688 7.671875 -9.519531 8.046875 -9.3125 L 8.046875 -8.015625 C 7.660156 -8.222656 7.191406 -8.390625 6.640625 -8.515625 C 6.085938 -8.648438 5.519531 -8.71875 4.9375 -8.71875 C 4.15625 -8.71875 3.5625 -8.601562 3.15625 -8.375 C 2.757812 -8.144531 2.5625 -7.773438 2.5625 -7.265625 C 2.5625 -6.910156 2.628906 -6.640625 2.765625 -6.453125 C 2.910156 -6.265625 3.171875 -6.09375 3.546875 -5.9375 C 3.929688 -5.789062 4.546875 -5.601562 5.390625 -5.375 C 6.597656 -5.039062 7.441406 -4.644531 7.921875 -4.1875 C 8.398438 -3.738281 8.640625 -3.117188 8.640625 -2.328125 C 8.640625 -1.515625 8.316406 -0.875 7.671875 -0.40625 C 7.035156 0.0625 6.066406 0.296875 4.765625 0.296875 Z M 4.765625 0.296875 "/></g></g></g><g fill="#ffffff" fill-opacity="1"><g transform="translate(431.980991, 398.663202)"><g><path d="M 1.40625 -14.0625 L 10.46875 -14.0625 L 10.46875 -12.734375 L 2.984375 -12.734375 L 2.984375 -7.703125 L 8.59375 -7.703125 L 8.59375 -6.375 L 2.984375 -6.375 L 2.984375 -1.328125 L 10.46875 -1.328125 L 10.46875 0 L 1.40625 0 Z M 1.40625 -14.0625 "/></g></g></g><g fill="#ffffff" fill-opacity="1"><g transform="translate(443.453206, 398.663202)"><g><path d="M 1.40625 -9.65625 L 2.921875 -9.65625 L 2.921875 -7.984375 C 3.867188 -9.304688 5.273438 -9.96875 7.140625 -9.96875 C 8.097656 -9.96875 8.957031 -9.75 9.71875 -9.3125 C 10.488281 -8.882812 11.09375 -8.28125 11.53125 -7.5 C 11.976562 -6.726562 12.203125 -5.832031 12.203125 -4.8125 C 12.203125 -3.800781 11.984375 -2.90625 11.546875 -2.125 C 11.109375 -1.351562 10.503906 -0.753906 9.734375 -0.328125 C 8.960938 0.0859375 8.097656 0.296875 7.140625 0.296875 C 6.273438 0.296875 5.460938 0.132812 4.703125 -0.1875 C 3.953125 -0.519531 3.367188 -1 2.953125 -1.625 L 2.953125 4.40625 L 1.40625 4.40625 Z M 6.828125 -0.921875 C 7.546875 -0.921875 8.195312 -1.082031 8.78125 -1.40625 C 9.363281 -1.726562 9.816406 -2.179688 10.140625 -2.765625 C 10.472656 -3.347656 10.640625 -4.03125 10.640625 -4.8125 C 10.640625 -5.570312 10.472656 -6.25 10.140625 -6.84375 C 9.816406 -7.445312 9.363281 -7.910156 8.78125 -8.234375 C 8.195312 -8.554688 7.546875 -8.71875 6.828125 -8.71875 C 5.910156 -8.71875 5.101562 -8.476562 4.40625 -8 C 3.71875 -7.519531 3.234375 -6.863281 2.953125 -6.03125 L 2.953125 -3.640625 C 3.210938 -2.828125 3.691406 -2.171875 4.390625 -1.671875 C 5.097656 -1.171875 5.910156 -0.921875 6.828125 -0.921875 Z M 6.828125 -0.921875 "/></g></g></g><g fill="#ffffff" fill-opacity="1"><g transform="translate(456.656322, 398.663202)"><g><path d="M 2.375 -11.75 C 2.101562 -11.75 1.875 -11.84375 1.6875 -12.03125 C 1.5 -12.21875 1.40625 -12.445312 1.40625 -12.71875 C 1.40625 -12.988281 1.5 -13.21875 1.6875 -13.40625 C 1.875 -13.59375 2.101562 -13.6875 2.375 -13.6875 C 2.644531 -13.6875 2.875 -13.59375 3.0625 -13.40625 C 3.257812 -13.21875 3.359375 -12.988281 3.359375 -12.71875 C 3.359375 -12.445312 3.257812 -12.21875 3.0625 -12.03125 C 2.875 -11.84375 2.644531 -11.75 2.375 -11.75 Z M 1.609375 -9.65625 L 3.15625 -9.65625 L 3.15625 0 L 1.609375 0 Z M 1.609375 -9.65625 "/></g></g></g><g fill="#ffffff" fill-opacity="1"><g transform="translate(461.426348, 398.663202)"><g><path d="M 6.40625 4.625 C 5.757812 4.625 5.125 4.570312 4.5 4.46875 C 3.882812 4.363281 3.363281 4.21875 2.9375 4.03125 L 2.9375 2.71875 C 3.957031 3.175781 5.113281 3.40625 6.40625 3.40625 C 7.71875 3.40625 8.6875 3.101562 9.3125 2.5 C 9.9375 1.90625 10.25 1.003906 10.25 -0.203125 L 10.25 -1.625 C 9.375 -0.34375 7.988281 0.296875 6.09375 0.296875 C 5.144531 0.296875 4.28125 0.0859375 3.5 -0.328125 C 2.71875 -0.753906 2.101562 -1.351562 1.65625 -2.125 C 1.21875 -2.90625 1 -3.800781 1 -4.8125 C 1 -5.832031 1.21875 -6.726562 1.65625 -7.5 C 2.101562 -8.28125 2.707031 -8.882812 3.46875 -9.3125 C 4.238281 -9.75 5.101562 -9.96875 6.0625 -9.96875 C 7.050781 -9.96875 7.875 -9.816406 8.53125 -9.515625 C 9.1875 -9.210938 9.769531 -8.71875 10.28125 -8.03125 L 10.28125 -9.65625 L 11.796875 -9.65625 L 11.796875 -0.40625 C 11.796875 1.226562 11.351562 2.472656 10.46875 3.328125 C 9.582031 4.191406 8.226562 4.625 6.40625 4.625 Z M 6.375 -0.921875 C 7.332031 -0.921875 8.148438 -1.160156 8.828125 -1.640625 C 9.515625 -2.128906 9.988281 -2.796875 10.25 -3.640625 L 10.25 -6.03125 C 9.976562 -6.882812 9.5 -7.546875 8.8125 -8.015625 C 8.125 -8.484375 7.3125 -8.71875 6.375 -8.71875 C 5.664062 -8.71875 5.019531 -8.550781 4.4375 -8.21875 C 3.851562 -7.894531 3.394531 -7.4375 3.0625 -6.84375 C 2.726562 -6.25 2.5625 -5.570312 2.5625 -4.8125 C 2.5625 -4.03125 2.726562 -3.347656 3.0625 -2.765625 C 3.394531 -2.179688 3.851562 -1.726562 4.4375 -1.40625 C 5.019531 -1.082031 5.664062 -0.921875 6.375 -0.921875 Z M 6.375 -0.921875 "/></g></g></g><g fill="#ffffff" fill-opacity="1"><g transform="translate(474.629464, 398.663202)"><g><path d="M 6.59375 0.296875 C 4.84375 0.296875 3.472656 -0.148438 2.484375 -1.046875 C 1.492188 -1.941406 1 -3.195312 1 -4.8125 C 1 -6.394531 1.441406 -7.648438 2.328125 -8.578125 C 3.210938 -9.503906 4.476562 -9.96875 6.125 -9.96875 C 7.21875 -9.96875 8.144531 -9.753906 8.90625 -9.328125 C 9.675781 -8.898438 10.253906 -8.316406 10.640625 -7.578125 C 11.035156 -6.847656 11.234375 -6.015625 11.234375 -5.078125 L 11.234375 -4.21875 L 2.453125 -4.21875 C 2.503906 -3.125 2.910156 -2.300781 3.671875 -1.75 C 4.429688 -1.195312 5.460938 -0.921875 6.765625 -0.921875 C 7.390625 -0.921875 8.007812 -0.976562 8.625 -1.09375 C 9.238281 -1.207031 9.785156 -1.363281 10.265625 -1.5625 L 10.265625 -0.265625 C 9.859375 -0.0976562 9.3125 0.0351562 8.625 0.140625 C 7.9375 0.242188 7.257812 0.296875 6.59375 0.296875 Z M 9.78125 -5.328125 C 9.75 -6.378906 9.425781 -7.207031 8.8125 -7.8125 C 8.195312 -8.414062 7.289062 -8.71875 6.09375 -8.71875 C 4.925781 -8.71875 4.035156 -8.40625 3.421875 -7.78125 C 2.804688 -7.15625 2.484375 -6.335938 2.453125 -5.328125 Z M 9.78125 -5.328125 "/></g></g></g><g fill="#ffffff" fill-opacity="1"><g transform="translate(486.866498, 398.663202)"><g><path d="M 1.40625 -9.65625 L 2.921875 -9.65625 L 2.921875 -8.21875 C 3.390625 -8.8125 3.960938 -9.25 4.640625 -9.53125 C 5.316406 -9.820312 6.035156 -9.96875 6.796875 -9.96875 C 8.078125 -9.96875 9.023438 -9.628906 9.640625 -8.953125 C 10.265625 -8.285156 10.578125 -7.390625 10.578125 -6.265625 L 10.578125 0 L 9.03125 0 L 9.03125 -6.125 C 9.03125 -6.945312 8.828125 -7.582031 8.421875 -8.03125 C 8.023438 -8.488281 7.382812 -8.71875 6.5 -8.71875 C 5.007812 -8.71875 3.828125 -8.046875 2.953125 -6.703125 L 2.953125 0 L 1.40625 0 Z M 1.40625 -9.65625 "/></g></g></g><g fill="#ffffff" fill-opacity="1"><g transform="translate(498.761378, 398.663202)"><g><path d="M 6.59375 0.296875 C 4.84375 0.296875 3.472656 -0.148438 2.484375 -1.046875 C 1.492188 -1.941406 1 -3.195312 1 -4.8125 C 1 -6.394531 1.441406 -7.648438 2.328125 -8.578125 C 3.210938 -9.503906 4.476562 -9.96875 6.125 -9.96875 C 7.21875 -9.96875 8.144531 -9.753906 8.90625 -9.328125 C 9.675781 -8.898438 10.253906 -8.316406 10.640625 -7.578125 C 11.035156 -6.847656 11.234375 -6.015625 11.234375 -5.078125 L 11.234375 -4.21875 L 2.453125 -4.21875 C 2.503906 -3.125 2.910156 -2.300781 3.671875 -1.75 C 4.429688 -1.195312 5.460938 -0.921875 6.765625 -0.921875 C 7.390625 -0.921875 8.007812 -0.976562 8.625 -1.09375 C 9.238281 -1.207031 9.785156 -1.363281 10.265625 -1.5625 L 10.265625 -0.265625 C 9.859375 -0.0976562 9.3125 0.0351562 8.625 0.140625 C 7.9375 0.242188 7.257812 0.296875 6.59375 0.296875 Z M 9.78125 -5.328125 C 9.75 -6.378906 9.425781 -7.207031 8.8125 -7.8125 C 8.195312 -8.414062 7.289062 -8.71875 6.09375 -8.71875 C 4.925781 -8.71875 4.035156 -8.40625 3.421875 -7.78125 C 2.804688 -7.15625 2.484375 -6.335938 2.453125 -5.328125 Z M 9.78125 -5.328125 "/></g></g></g><g fill="#ffffff" fill-opacity="1"><g transform="translate(510.998412, 398.663202)"><g><path d="M 4.984375 0.296875 C 4.078125 0.296875 3.367188 0.03125 2.859375 -0.5 C 2.359375 -1.039062 2.109375 -1.804688 2.109375 -2.796875 L 2.109375 -8.453125 L 0.609375 -8.453125 L 0.609375 -9.65625 L 2.109375 -9.65625 L 2.109375 -12.5625 L 3.65625 -12.5625 L 3.65625 -9.65625 L 6.09375 -9.65625 L 6.09375 -8.453125 L 3.65625 -8.453125 L 3.65625 -2.75 C 3.65625 -2.082031 3.789062 -1.609375 4.0625 -1.328125 C 4.332031 -1.054688 4.820312 -0.921875 5.53125 -0.921875 C 5.882812 -0.921875 6.253906 -1.003906 6.640625 -1.171875 L 6.640625 0.09375 C 6.203125 0.226562 5.648438 0.296875 4.984375 0.296875 Z M 4.984375 0.296875 "/></g></g></g><g fill="#ffffff" fill-opacity="1"><g transform="translate(518.344656, 398.663202)"><g><path d="M 2.375 -11.75 C 2.101562 -11.75 1.875 -11.84375 1.6875 -12.03125 C 1.5 -12.21875 1.40625 -12.445312 1.40625 -12.71875 C 1.40625 -12.988281 1.5 -13.21875 1.6875 -13.40625 C 1.875 -13.59375 2.101562 -13.6875 2.375 -13.6875 C 2.644531 -13.6875 2.875 -13.59375 3.0625 -13.40625 C 3.257812 -13.21875 3.359375 -12.988281 3.359375 -12.71875 C 3.359375 -12.445312 3.257812 -12.21875 3.0625 -12.03125 C 2.875 -11.84375 2.644531 -11.75 2.375 -11.75 Z M 1.609375 -9.65625 L 3.15625 -9.65625 L 3.15625 0 L 1.609375 0 Z M 1.609375 -9.65625 "/></g></g></g><g fill="#ffffff" fill-opacity="1"><g transform="translate(523.114682, 398.663202)"><g><path d="M 6.34375 0.296875 C 5.320312 0.296875 4.40625 0.09375 3.59375 -0.3125 C 2.78125 -0.71875 2.144531 -1.304688 1.6875 -2.078125 C 1.226562 -2.847656 1 -3.757812 1 -4.8125 C 1 -5.84375 1.226562 -6.75 1.6875 -7.53125 C 2.15625 -8.320312 2.796875 -8.925781 3.609375 -9.34375 C 4.429688 -9.757812 5.363281 -9.96875 6.40625 -9.96875 C 7.132812 -9.96875 7.78125 -9.898438 8.34375 -9.765625 C 8.914062 -9.628906 9.421875 -9.410156 9.859375 -9.109375 L 9.859375 -7.8125 C 9.015625 -8.414062 7.910156 -8.71875 6.546875 -8.71875 C 5.359375 -8.71875 4.394531 -8.375 3.65625 -7.6875 C 2.925781 -7 2.5625 -6.039062 2.5625 -4.8125 C 2.5625 -3.570312 2.925781 -2.613281 3.65625 -1.9375 C 4.394531 -1.257812 5.335938 -0.921875 6.484375 -0.921875 C 7.191406 -0.921875 7.828125 -1 8.390625 -1.15625 C 8.953125 -1.320312 9.488281 -1.570312 10 -1.90625 L 10 -0.609375 C 9.53125 -0.285156 9.003906 -0.0546875 8.421875 0.078125 C 7.835938 0.222656 7.144531 0.296875 6.34375 0.296875 Z M 6.34375 0.296875 "/></g></g></g><g fill="#ffffff" fill-opacity="1"><g transform="translate(534.124973, 398.663202)"><g/></g></g><g fill="#ffffff" fill-opacity="1"><g transform="translate(450.467895, 426.600017)"><g><path d="M 1.421875 -14.0625 L 3 -14.0625 L 3 0 L 1.421875 0 Z M 1.421875 -14.0625 "/></g></g></g><g fill="#ffffff" fill-opacity="1"><g transform="translate(454.895766, 426.600017)"><g><path d="M 1.40625 -9.65625 L 2.921875 -9.65625 L 2.921875 -8.21875 C 3.390625 -8.8125 3.960938 -9.25 4.640625 -9.53125 C 5.316406 -9.820312 6.035156 -9.96875 6.796875 -9.96875 C 8.078125 -9.96875 9.023438 -9.628906 9.640625 -8.953125 C 10.265625 -8.285156 10.578125 -7.390625 10.578125 -6.265625 L 10.578125 0 L 9.03125 0 L 9.03125 -6.125 C 9.03125 -6.945312 8.828125 -7.582031 8.421875 -8.03125 C 8.023438 -8.488281 7.382812 -8.71875 6.5 -8.71875 C 5.007812 -8.71875 3.828125 -8.046875 2.953125 -6.703125 L 2.953125 0 L 1.40625 0 Z M 1.40625 -9.65625 "/></g></g></g><g fill="#ffffff" fill-opacity="1"><g transform="translate(466.790646, 426.600017)"><g><path d="M 4.765625 0.296875 C 4.140625 0.296875 3.460938 0.207031 2.734375 0.03125 C 2.015625 -0.144531 1.453125 -0.367188 1.046875 -0.640625 L 1.046875 -1.953125 C 1.554688 -1.640625 2.140625 -1.390625 2.796875 -1.203125 C 3.460938 -1.015625 4.109375 -0.921875 4.734375 -0.921875 C 5.566406 -0.921875 6.164062 -1.035156 6.53125 -1.265625 C 6.894531 -1.503906 7.078125 -1.859375 7.078125 -2.328125 C 7.078125 -2.691406 6.992188 -2.976562 6.828125 -3.1875 C 6.671875 -3.394531 6.40625 -3.578125 6.03125 -3.734375 C 5.65625 -3.898438 5.070312 -4.09375 4.28125 -4.3125 C 3.507812 -4.519531 2.890625 -4.738281 2.421875 -4.96875 C 1.960938 -5.207031 1.609375 -5.507812 1.359375 -5.875 C 1.117188 -6.238281 1 -6.703125 1 -7.265625 C 1 -8.140625 1.351562 -8.804688 2.0625 -9.265625 C 2.769531 -9.734375 3.707031 -9.96875 4.875 -9.96875 C 5.5 -9.96875 6.085938 -9.910156 6.640625 -9.796875 C 7.203125 -9.679688 7.671875 -9.519531 8.046875 -9.3125 L 8.046875 -8.015625 C 7.660156 -8.222656 7.191406 -8.390625 6.640625 -8.515625 C 6.085938 -8.648438 5.519531 -8.71875 4.9375 -8.71875 C 4.15625 -8.71875 3.5625 -8.601562 3.15625 -8.375 C 2.757812 -8.144531 2.5625 -7.773438 2.5625 -7.265625 C 2.5625 -6.910156 2.628906 -6.640625 2.765625 -6.453125 C 2.910156 -6.265625 3.171875 -6.09375 3.546875 -5.9375 C 3.929688 -5.789062 4.546875 -5.601562 5.390625 -5.375 C 6.597656 -5.039062 7.441406 -4.644531 7.921875 -4.1875 C 8.398438 -3.738281 8.640625 -3.117188 8.640625 -2.328125 C 8.640625 -1.515625 8.316406 -0.875 7.671875 -0.40625 C 7.035156 0.0625 6.066406 0.296875 4.765625 0.296875 Z M 4.765625 0.296875 "/></g></g></g><g fill="#ffffff" fill-opacity="1"><g transform="translate(476.431335, 426.600017)"><g><path d="M 2.375 -11.75 C 2.101562 -11.75 1.875 -11.84375 1.6875 -12.03125 C 1.5 -12.21875 1.40625 -12.445312 1.40625 -12.71875 C 1.40625 -12.988281 1.5 -13.21875 1.6875 -13.40625 C 1.875 -13.59375 2.101562 -13.6875 2.375 -13.6875 C 2.644531 -13.6875 2.875 -13.59375 3.0625 -13.40625 C 3.257812 -13.21875 3.359375 -12.988281 3.359375 -12.71875 C 3.359375 -12.445312 3.257812 -12.21875 3.0625 -12.03125 C 2.875 -11.84375 2.644531 -11.75 2.375 -11.75 Z M 1.609375 -9.65625 L 3.15625 -9.65625 L 3.15625 0 L 1.609375 0 Z M 1.609375 -9.65625 "/></g></g></g><g fill="#ffffff" fill-opacity="1"><g transform="translate(481.201361, 426.600017)"><g><path d="M 6.40625 4.625 C 5.757812 4.625 5.125 4.570312 4.5 4.46875 C 3.882812 4.363281 3.363281 4.21875 2.9375 4.03125 L 2.9375 2.71875 C 3.957031 3.175781 5.113281 3.40625 6.40625 3.40625 C 7.71875 3.40625 8.6875 3.101562 9.3125 2.5 C 9.9375 1.90625 10.25 1.003906 10.25 -0.203125 L 10.25 -1.625 C 9.375 -0.34375 7.988281 0.296875 6.09375 0.296875 C 5.144531 0.296875 4.28125 0.0859375 3.5 -0.328125 C 2.71875 -0.753906 2.101562 -1.351562 1.65625 -2.125 C 1.21875 -2.90625 1 -3.800781 1 -4.8125 C 1 -5.832031 1.21875 -6.726562 1.65625 -7.5 C 2.101562 -8.28125 2.707031 -8.882812 3.46875 -9.3125 C 4.238281 -9.75 5.101562 -9.96875 6.0625 -9.96875 C 7.050781 -9.96875 7.875 -9.816406 8.53125 -9.515625 C 9.1875 -9.210938 9.769531 -8.71875 10.28125 -8.03125 L 10.28125 -9.65625 L 11.796875 -9.65625 L 11.796875 -0.40625 C 11.796875 1.226562 11.351562 2.472656 10.46875 3.328125 C 9.582031 4.191406 8.226562 4.625 6.40625 4.625 Z M 6.375 -0.921875 C 7.332031 -0.921875 8.148438 -1.160156 8.828125 -1.640625 C 9.515625 -2.128906 9.988281 -2.796875 10.25 -3.640625 L 10.25 -6.03125 C 9.976562 -6.882812 9.5 -7.546875 8.8125 -8.015625 C 8.125 -8.484375 7.3125 -8.71875 6.375 -8.71875 C 5.664062 -8.71875 5.019531 -8.550781 4.4375 -8.21875 C 3.851562 -7.894531 3.394531 -7.4375 3.0625 -6.84375 C 2.726562 -6.25 2.5625 -5.570312 2.5625 -4.8125 C 2.5625 -4.03125 2.726562 -3.347656 3.0625 -2.765625 C 3.394531 -2.179688 3.851562 -1.726562 4.4375 -1.40625 C 5.019531 -1.082031 5.664062 -0.921875 6.375 -0.921875 Z M 6.375 -0.921875 "/></g></g></g><g fill="#ffffff" fill-opacity="1"><g transform="translate(494.404477, 426.600017)"><g><path d="M 1.40625 -14.875 L 2.953125 -14.875 L 2.953125 -8.25 C 3.878906 -9.394531 5.160156 -9.96875 6.796875 -9.96875 C 8.078125 -9.96875 9.023438 -9.628906 9.640625 -8.953125 C 10.265625 -8.285156 10.578125 -7.390625 10.578125 -6.265625 L 10.578125 0 L 9.03125 0 L 9.03125 -6.125 C 9.03125 -6.945312 8.828125 -7.582031 8.421875 -8.03125 C 8.023438 -8.488281 7.382812 -8.71875 6.5 -8.71875 C 5.007812 -8.71875 3.828125 -8.046875 2.953125 -6.703125 L 2.953125 0 L 1.40625 0 Z M 1.40625 -14.875 "/></g></g></g><g fill="#ffffff" fill-opacity="1"><g transform="translate(506.299357, 426.600017)"><g><path d="M 4.984375 0.296875 C 4.078125 0.296875 3.367188 0.03125 2.859375 -0.5 C 2.359375 -1.039062 2.109375 -1.804688 2.109375 -2.796875 L 2.109375 -8.453125 L 0.609375 -8.453125 L 0.609375 -9.65625 L 2.109375 -9.65625 L 2.109375 -12.5625 L 3.65625 -12.5625 L 3.65625 -9.65625 L 6.09375 -9.65625 L 6.09375 -8.453125 L 3.65625 -8.453125 L 3.65625 -2.75 C 3.65625 -2.082031 3.789062 -1.609375 4.0625 -1.328125 C 4.332031 -1.054688 4.820312 -0.921875 5.53125 -0.921875 C 5.882812 -0.921875 6.253906 -1.003906 6.640625 -1.171875 L 6.640625 0.09375 C 6.203125 0.226562 5.648438 0.296875 4.984375 0.296875 Z M 4.984375 0.296875 "/></g></g></g><g fill="#ffffff" fill-opacity="1"><g transform="translate(513.6456, 426.600017)"><g><path d="M 4.765625 0.296875 C 4.140625 0.296875 3.460938 0.207031 2.734375 0.03125 C 2.015625 -0.144531 1.453125 -0.367188 1.046875 -0.640625 L 1.046875 -1.953125 C 1.554688 -1.640625 2.140625 -1.390625 2.796875 -1.203125 C 3.460938 -1.015625 4.109375 -0.921875 4.734375 -0.921875 C 5.566406 -0.921875 6.164062 -1.035156 6.53125 -1.265625 C 6.894531 -1.503906 7.078125 -1.859375 7.078125 -2.328125 C 7.078125 -2.691406 6.992188 -2.976562 6.828125 -3.1875 C 6.671875 -3.394531 6.40625 -3.578125 6.03125 -3.734375 C 5.65625 -3.898438 5.070312 -4.09375 4.28125 -4.3125 C 3.507812 -4.519531 2.890625 -4.738281 2.421875 -4.96875 C 1.960938 -5.207031 1.609375 -5.507812 1.359375 -5.875 C 1.117188 -6.238281 1 -6.703125 1 -7.265625 C 1 -8.140625 1.351562 -8.804688 2.0625 -9.265625 C 2.769531 -9.734375 3.707031 -9.96875 4.875 -9.96875 C 5.5 -9.96875 6.085938 -9.910156 6.640625 -9.796875 C 7.203125 -9.679688 7.671875 -9.519531 8.046875 -9.3125 L 8.046875 -8.015625 C 7.660156 -8.222656 7.191406 -8.390625 6.640625 -8.515625 C 6.085938 -8.648438 5.519531 -8.71875 4.9375 -8.71875 C 4.15625 -8.71875 3.5625 -8.601562 3.15625 -8.375 C 2.757812 -8.144531 2.5625 -7.773438 2.5625 -7.265625 C 2.5625 -6.910156 2.628906 -6.640625 2.765625 -6.453125 C 2.910156 -6.265625 3.171875 -6.09375 3.546875 -5.9375 C 3.929688 -5.789062 4.546875 -5.601562 5.390625 -5.375 C 6.597656 -5.039062 7.441406 -4.644531 7.921875 -4.1875 C 8.398438 -3.738281 8.640625 -3.117188 8.640625 -2.328125 C 8.640625 -1.515625 8.316406 -0.875 7.671875 -0.40625 C 7.035156 0.0625 6.066406 0.296875 4.765625 0.296875 Z M 4.765625 0.296875 "/></g></g></g><g fill="#ffffff" fill-opacity="1"><g transform="translate(191.96378, 372.739865)"><g><path d="M 1.40625 -14.0625 L 7.640625 -14.0625 C 8.867188 -14.0625 9.800781 -13.742188 10.4375 -13.109375 C 11.082031 -12.472656 11.40625 -11.535156 11.40625 -10.296875 C 11.40625 -9.578125 11.238281 -8.953125 10.90625 -8.421875 C 10.570312 -7.890625 10.128906 -7.5 9.578125 -7.25 C 11.117188 -6.84375 11.890625 -5.734375 11.890625 -3.921875 C 11.890625 -3.128906 11.71875 -2.4375 11.375 -1.84375 C 11.039062 -1.25 10.570312 -0.789062 9.96875 -0.46875 C 9.375 -0.15625 8.710938 0 7.984375 0 L 1.40625 0 Z M 7.53125 -7.875 C 8.28125 -7.875 8.851562 -8.078125 9.25 -8.484375 C 9.644531 -8.890625 9.84375 -9.484375 9.84375 -10.265625 C 9.84375 -11.148438 9.644531 -11.78125 9.25 -12.15625 C 8.863281 -12.539062 8.234375 -12.734375 7.359375 -12.734375 L 2.984375 -12.734375 L 2.984375 -7.875 Z M 7.640625 -1.328125 C 8.523438 -1.328125 9.191406 -1.523438 9.640625 -1.921875 C 10.097656 -2.328125 10.328125 -3.007812 10.328125 -3.96875 C 10.328125 -4.894531 10.09375 -5.554688 9.625 -5.953125 C 9.15625 -6.347656 8.421875 -6.546875 7.421875 -6.546875 L 2.984375 -6.546875 L 2.984375 -1.328125 Z M 7.640625 -1.328125 "/></g></g></g><g fill="#ffffff" fill-opacity="1"><g transform="translate(204.864996, 372.739865)"><g><path d="M 6.59375 0.296875 C 4.84375 0.296875 3.472656 -0.148438 2.484375 -1.046875 C 1.492188 -1.941406 1 -3.195312 1 -4.8125 C 1 -6.394531 1.441406 -7.648438 2.328125 -8.578125 C 3.210938 -9.503906 4.476562 -9.96875 6.125 -9.96875 C 7.21875 -9.96875 8.144531 -9.753906 8.90625 -9.328125 C 9.675781 -8.898438 10.253906 -8.316406 10.640625 -7.578125 C 11.035156 -6.847656 11.234375 -6.015625 11.234375 -5.078125 L 11.234375 -4.21875 L 2.453125 -4.21875 C 2.503906 -3.125 2.910156 -2.300781 3.671875 -1.75 C 4.429688 -1.195312 5.460938 -0.921875 6.765625 -0.921875 C 7.390625 -0.921875 8.007812 -0.976562 8.625 -1.09375 C 9.238281 -1.207031 9.785156 -1.363281 10.265625 -1.5625 L 10.265625 -0.265625 C 9.859375 -0.0976562 9.3125 0.0351562 8.625 0.140625 C 7.9375 0.242188 7.257812 0.296875 6.59375 0.296875 Z M 9.78125 -5.328125 C 9.75 -6.378906 9.425781 -7.207031 8.8125 -7.8125 C 8.195312 -8.414062 7.289062 -8.71875 6.09375 -8.71875 C 4.925781 -8.71875 4.035156 -8.40625 3.421875 -7.78125 C 2.804688 -7.15625 2.484375 -6.335938 2.453125 -5.328125 Z M 9.78125 -5.328125 "/></g></g></g><g fill="#ffffff" fill-opacity="1"><g transform="translate(217.10203, 372.739865)"><g><path d="M 1.40625 -14.875 L 2.953125 -14.875 L 2.953125 -8.25 C 3.878906 -9.394531 5.160156 -9.96875 6.796875 -9.96875 C 8.078125 -9.96875 9.023438 -9.628906 9.640625 -8.953125 C 10.265625 -8.285156 10.578125 -7.390625 10.578125 -6.265625 L 10.578125 0 L 9.03125 0 L 9.03125 -6.125 C 9.03125 -6.945312 8.828125 -7.582031 8.421875 -8.03125 C 8.023438 -8.488281 7.382812 -8.71875 6.5 -8.71875 C 5.007812 -8.71875 3.828125 -8.046875 2.953125 -6.703125 L 2.953125 0 L 1.40625 0 Z M 1.40625 -14.875 "/></g></g></g><g fill="#ffffff" fill-opacity="1"><g transform="translate(228.99691, 372.739865)"><g><path d="M 4.796875 0.296875 C 3.617188 0.296875 2.691406 0.00390625 2.015625 -0.578125 C 1.335938 -1.160156 1 -1.960938 1 -2.984375 C 1 -4.035156 1.328125 -4.847656 1.984375 -5.421875 C 2.648438 -5.992188 3.601562 -6.28125 4.84375 -6.28125 C 6.238281 -6.28125 7.441406 -5.988281 8.453125 -5.40625 L 8.453125 -6.140625 C 8.453125 -7.015625 8.203125 -7.660156 7.703125 -8.078125 C 7.210938 -8.503906 6.429688 -8.71875 5.359375 -8.71875 C 4.210938 -8.71875 3.15625 -8.5 2.1875 -8.0625 L 2.1875 -9.375 C 2.59375 -9.550781 3.101562 -9.691406 3.71875 -9.796875 C 4.34375 -9.910156 4.9375 -9.96875 5.5 -9.96875 C 7.019531 -9.96875 8.148438 -9.617188 8.890625 -8.921875 C 9.628906 -8.234375 10 -7.28125 10 -6.0625 L 10 0 L 8.546875 0 L 8.546875 -1.25 C 7.703125 -0.21875 6.453125 0.296875 4.796875 0.296875 Z M 5.171875 -0.96875 C 5.898438 -0.96875 6.554688 -1.109375 7.140625 -1.390625 C 7.722656 -1.679688 8.160156 -2.085938 8.453125 -2.609375 L 8.453125 -4.171875 C 7.929688 -4.472656 7.410156 -4.691406 6.890625 -4.828125 C 6.378906 -4.972656 5.800781 -5.046875 5.15625 -5.046875 C 4.238281 -5.046875 3.578125 -4.875 3.171875 -4.53125 C 2.765625 -4.195312 2.5625 -3.679688 2.5625 -2.984375 C 2.5625 -1.640625 3.429688 -0.96875 5.171875 -0.96875 Z M 5.171875 -0.96875 "/></g></g></g><g fill="#ffffff" fill-opacity="1"><g transform="translate(240.308118, 372.739865)"><g><path d="M 1 -9.65625 L 2.65625 -9.65625 L 5.71875 -1.90625 L 8.78125 -9.65625 L 10.4375 -9.65625 L 6.515625 0 L 4.90625 0 Z M 1 -9.65625 "/></g></g></g><g fill="#ffffff" fill-opacity="1"><g transform="translate(251.760205, 372.739865)"><g><path d="M 2.375 -11.75 C 2.101562 -11.75 1.875 -11.84375 1.6875 -12.03125 C 1.5 -12.21875 1.40625 -12.445312 1.40625 -12.71875 C 1.40625 -12.988281 1.5 -13.21875 1.6875 -13.40625 C 1.875 -13.59375 2.101562 -13.6875 2.375 -13.6875 C 2.644531 -13.6875 2.875 -13.59375 3.0625 -13.40625 C 3.257812 -13.21875 3.359375 -12.988281 3.359375 -12.71875 C 3.359375 -12.445312 3.257812 -12.21875 3.0625 -12.03125 C 2.875 -11.84375 2.644531 -11.75 2.375 -11.75 Z M 1.609375 -9.65625 L 3.15625 -9.65625 L 3.15625 0 L 1.609375 0 Z M 1.609375 -9.65625 "/></g></g></g><g fill="#ffffff" fill-opacity="1"><g transform="translate(256.530231, 372.739865)"><g><path d="M 6.359375 0.296875 C 5.316406 0.296875 4.390625 0.0859375 3.578125 -0.328125 C 2.765625 -0.742188 2.128906 -1.335938 1.671875 -2.109375 C 1.222656 -2.878906 1 -3.78125 1 -4.8125 C 1 -5.832031 1.226562 -6.726562 1.6875 -7.5 C 2.144531 -8.28125 2.78125 -8.882812 3.59375 -9.3125 C 4.40625 -9.75 5.328125 -9.96875 6.359375 -9.96875 C 7.390625 -9.96875 8.3125 -9.75 9.125 -9.3125 C 9.9375 -8.882812 10.570312 -8.28125 11.03125 -7.5 C 11.488281 -6.726562 11.71875 -5.832031 11.71875 -4.8125 C 11.71875 -3.78125 11.488281 -2.878906 11.03125 -2.109375 C 10.582031 -1.335938 9.953125 -0.742188 9.140625 -0.328125 C 8.328125 0.0859375 7.398438 0.296875 6.359375 0.296875 Z M 6.359375 -0.921875 C 7.515625 -0.921875 8.4375 -1.269531 9.125 -1.96875 C 9.8125 -2.675781 10.15625 -3.625 10.15625 -4.8125 C 10.15625 -6 9.8125 -6.945312 9.125 -7.65625 C 8.4375 -8.363281 7.515625 -8.71875 6.359375 -8.71875 C 5.203125 -8.71875 4.28125 -8.363281 3.59375 -7.65625 C 2.90625 -6.945312 2.5625 -6 2.5625 -4.8125 C 2.5625 -3.625 2.90625 -2.675781 3.59375 -1.96875 C 4.28125 -1.269531 5.203125 -0.921875 6.359375 -0.921875 Z M 6.359375 -0.921875 "/></g></g></g><g fill="#ffffff" fill-opacity="1"><g transform="translate(269.250312, 372.739865)"><g><path d="M 1.40625 -9.65625 L 2.921875 -9.65625 L 2.921875 -7.765625 C 3.691406 -9.023438 5.144531 -9.65625 7.28125 -9.65625 L 7.28125 -8.40625 C 4.945312 -8.40625 3.503906 -7.632812 2.953125 -6.09375 L 2.953125 0 L 1.40625 0 Z M 1.40625 -9.65625 "/></g></g></g><g fill="#ffffff" fill-opacity="1"><g transform="translate(277.139985, 372.739865)"><g><path d="M 4.796875 0.296875 C 3.617188 0.296875 2.691406 0.00390625 2.015625 -0.578125 C 1.335938 -1.160156 1 -1.960938 1 -2.984375 C 1 -4.035156 1.328125 -4.847656 1.984375 -5.421875 C 2.648438 -5.992188 3.601562 -6.28125 4.84375 -6.28125 C 6.238281 -6.28125 7.441406 -5.988281 8.453125 -5.40625 L 8.453125 -6.140625 C 8.453125 -7.015625 8.203125 -7.660156 7.703125 -8.078125 C 7.210938 -8.503906 6.429688 -8.71875 5.359375 -8.71875 C 4.210938 -8.71875 3.15625 -8.5 2.1875 -8.0625 L 2.1875 -9.375 C 2.59375 -9.550781 3.101562 -9.691406 3.71875 -9.796875 C 4.34375 -9.910156 4.9375 -9.96875 5.5 -9.96875 C 7.019531 -9.96875 8.148438 -9.617188 8.890625 -8.921875 C 9.628906 -8.234375 10 -7.28125 10 -6.0625 L 10 0 L 8.546875 0 L 8.546875 -1.25 C 7.703125 -0.21875 6.453125 0.296875 4.796875 0.296875 Z M 5.171875 -0.96875 C 5.898438 -0.96875 6.554688 -1.109375 7.140625 -1.390625 C 7.722656 -1.679688 8.160156 -2.085938 8.453125 -2.609375 L 8.453125 -4.171875 C 7.929688 -4.472656 7.410156 -4.691406 6.890625 -4.828125 C 6.378906 -4.972656 5.800781 -5.046875 5.15625 -5.046875 C 4.238281 -5.046875 3.578125 -4.875 3.171875 -4.53125 C 2.765625 -4.195312 2.5625 -3.679688 2.5625 -2.984375 C 2.5625 -1.640625 3.429688 -0.96875 5.171875 -0.96875 Z M 5.171875 -0.96875 "/></g></g></g><g fill="#ffffff" fill-opacity="1"><g transform="translate(288.451192, 372.739865)"><g><path d="M 1.40625 -14.875 L 2.953125 -14.875 L 2.953125 0 L 1.40625 0 Z M 1.40625 -14.875 "/></g></g></g><g fill="#ffffff" fill-opacity="1"><g transform="translate(220.348905, 400.67668)"><g><path d="M 1.40625 -14.0625 L 5.75 -14.0625 C 7.257812 -14.0625 8.566406 -13.78125 9.671875 -13.21875 C 10.773438 -12.65625 11.617188 -11.847656 12.203125 -10.796875 C 12.796875 -9.753906 13.09375 -8.523438 13.09375 -7.109375 C 13.09375 -4.753906 12.421875 -2.976562 11.078125 -1.78125 C 9.742188 -0.59375 7.863281 0 5.4375 0 L 1.40625 0 Z M 5.328125 -1.328125 C 7.453125 -1.328125 9.015625 -1.8125 10.015625 -2.78125 C 11.023438 -3.757812 11.53125 -5.203125 11.53125 -7.109375 C 11.53125 -8.878906 11.039062 -10.257812 10.0625 -11.25 C 9.082031 -12.238281 7.640625 -12.734375 5.734375 -12.734375 L 2.984375 -12.734375 L 2.984375 -1.328125 Z M 5.328125 -1.328125 "/></g></g></g><g fill="#ffffff" fill-opacity="1"><g transform="translate(234.45772, 400.67668)"><g><path d="M 4.796875 0.296875 C 3.617188 0.296875 2.691406 0.00390625 2.015625 -0.578125 C 1.335938 -1.160156 1 -1.960938 1 -2.984375 C 1 -4.035156 1.328125 -4.847656 1.984375 -5.421875 C 2.648438 -5.992188 3.601562 -6.28125 4.84375 -6.28125 C 6.238281 -6.28125 7.441406 -5.988281 8.453125 -5.40625 L 8.453125 -6.140625 C 8.453125 -7.015625 8.203125 -7.660156 7.703125 -8.078125 C 7.210938 -8.503906 6.429688 -8.71875 5.359375 -8.71875 C 4.210938 -8.71875 3.15625 -8.5 2.1875 -8.0625 L 2.1875 -9.375 C 2.59375 -9.550781 3.101562 -9.691406 3.71875 -9.796875 C 4.34375 -9.910156 4.9375 -9.96875 5.5 -9.96875 C 7.019531 -9.96875 8.148438 -9.617188 8.890625 -8.921875 C 9.628906 -8.234375 10 -7.28125 10 -6.0625 L 10 0 L 8.546875 0 L 8.546875 -1.25 C 7.703125 -0.21875 6.453125 0.296875 4.796875 0.296875 Z M 5.171875 -0.96875 C 5.898438 -0.96875 6.554688 -1.109375 7.140625 -1.390625 C 7.722656 -1.679688 8.160156 -2.085938 8.453125 -2.609375 L 8.453125 -4.171875 C 7.929688 -4.472656 7.410156 -4.691406 6.890625 -4.828125 C 6.378906 -4.972656 5.800781 -5.046875 5.15625 -5.046875 C 4.238281 -5.046875 3.578125 -4.875 3.171875 -4.53125 C 2.765625 -4.195312 2.5625 -3.679688 2.5625 -2.984375 C 2.5625 -1.640625 3.429688 -0.96875 5.171875 -0.96875 Z M 5.171875 -0.96875 "/></g></g></g><g fill="#ffffff" fill-opacity="1"><g transform="translate(245.768927, 400.67668)"><g><path d="M 4.984375 0.296875 C 4.078125 0.296875 3.367188 0.03125 2.859375 -0.5 C 2.359375 -1.039062 2.109375 -1.804688 2.109375 -2.796875 L 2.109375 -8.453125 L 0.609375 -8.453125 L 0.609375 -9.65625 L 2.109375 -9.65625 L 2.109375 -12.5625 L 3.65625 -12.5625 L 3.65625 -9.65625 L 6.09375 -9.65625 L 6.09375 -8.453125 L 3.65625 -8.453125 L 3.65625 -2.75 C 3.65625 -2.082031 3.789062 -1.609375 4.0625 -1.328125 C 4.332031 -1.054688 4.820312 -0.921875 5.53125 -0.921875 C 5.882812 -0.921875 6.253906 -1.003906 6.640625 -1.171875 L 6.640625 0.09375 C 6.203125 0.226562 5.648438 0.296875 4.984375 0.296875 Z M 4.984375 0.296875 "/></g></g></g><g fill="#ffffff" fill-opacity="1"><g transform="translate(253.115171, 400.67668)"><g><path d="M 4.796875 0.296875 C 3.617188 0.296875 2.691406 0.00390625 2.015625 -0.578125 C 1.335938 -1.160156 1 -1.960938 1 -2.984375 C 1 -4.035156 1.328125 -4.847656 1.984375 -5.421875 C 2.648438 -5.992188 3.601562 -6.28125 4.84375 -6.28125 C 6.238281 -6.28125 7.441406 -5.988281 8.453125 -5.40625 L 8.453125 -6.140625 C 8.453125 -7.015625 8.203125 -7.660156 7.703125 -8.078125 C 7.210938 -8.503906 6.429688 -8.71875 5.359375 -8.71875 C 4.210938 -8.71875 3.15625 -8.5 2.1875 -8.0625 L 2.1875 -9.375 C 2.59375 -9.550781 3.101562 -9.691406 3.71875 -9.796875 C 4.34375 -9.910156 4.9375 -9.96875 5.5 -9.96875 C 7.019531 -9.96875 8.148438 -9.617188 8.890625 -8.921875 C 9.628906 -8.234375 10 -7.28125 10 -6.0625 L 10 0 L 8.546875 0 L 8.546875 -1.25 C 7.703125 -0.21875 6.453125 0.296875 4.796875 0.296875 Z M 5.171875 -0.96875 C 5.898438 -0.96875 6.554688 -1.109375 7.140625 -1.390625 C 7.722656 -1.679688 8.160156 -2.085938 8.453125 -2.609375 L 8.453125 -4.171875 C 7.929688 -4.472656 7.410156 -4.691406 6.890625 -4.828125 C 6.378906 -4.972656 5.800781 -5.046875 5.15625 -5.046875 C 4.238281 -5.046875 3.578125 -4.875 3.171875 -4.53125 C 2.765625 -4.195312 2.5625 -3.679688 2.5625 -2.984375 C 2.5625 -1.640625 3.429688 -0.96875 5.171875 -0.96875 Z M 5.171875 -0.96875 "/></g></g></g><g fill="#000000" fill-opacity="1"><g transform="translate(335.760574, 292.925202)"><g><path d="M 1.140625 -13.25 L 6.4375 -13.25 C 7.894531 -13.25 9.0625 -12.863281 9.9375 -12.09375 C 10.820312 -11.320312 11.265625 -10.265625 11.265625 -8.921875 C 11.265625 -7.535156 10.828125 -6.476562 9.953125 -5.75 C 9.078125 -5.019531 7.898438 -4.65625 6.421875 -4.65625 L 3.546875 -4.65625 L 3.546875 0 L 1.140625 0 Z M 6.140625 -6.65625 C 7.941406 -6.65625 8.84375 -7.410156 8.84375 -8.921875 C 8.84375 -10.484375 7.941406 -11.265625 6.140625 -11.265625 L 3.546875 -11.265625 L 3.546875 -6.65625 Z M 6.140625 -6.65625 "/></g></g></g><g fill="#000000" fill-opacity="1"><g transform="translate(347.394319, 292.925202)"><g><path d="M 1.140625 -13.25 L 6.671875 -13.25 C 8.140625 -13.25 9.269531 -12.890625 10.0625 -12.171875 C 10.863281 -11.453125 11.265625 -10.410156 11.265625 -9.046875 C 11.265625 -8.066406 11.019531 -7.234375 10.53125 -6.546875 C 10.050781 -5.867188 9.367188 -5.382812 8.484375 -5.09375 L 11.1875 0 L 8.71875 0 L 6.15625 -4.859375 L 3.546875 -4.859375 L 3.546875 0 L 1.140625 0 Z M 6.234375 -6.84375 C 7.015625 -6.84375 7.644531 -7.023438 8.125 -7.390625 C 8.601562 -7.753906 8.84375 -8.304688 8.84375 -9.046875 C 8.84375 -10.523438 7.972656 -11.265625 6.234375 -11.265625 L 3.546875 -11.265625 L 3.546875 -6.84375 Z M 6.234375 -6.84375 "/></g></g></g><g fill="#000000" fill-opacity="1"><g transform="translate(359.407005, 292.925202)"><g><path d="M 1.140625 -13.25 L 10.109375 -13.25 L 10.109375 -11.265625 L 3.546875 -11.265625 L 3.546875 -7.625 L 8.421875 -7.625 L 8.421875 -5.625 L 3.546875 -5.625 L 3.546875 -1.984375 L 10.109375 -1.984375 L 10.109375 0 L 1.140625 0 Z M 1.140625 -13.25 "/></g></g></g><g fill="#000000" fill-opacity="1"><g transform="translate(370.074428, 292.925202)"><g><path d="M 7.84375 0.28125 C 6.457031 0.28125 5.226562 0 4.15625 -0.5625 C 3.082031 -1.125 2.25 -1.925781 1.65625 -2.96875 C 1.0625 -4.007812 0.765625 -5.222656 0.765625 -6.609375 C 0.765625 -8.003906 1.0625 -9.222656 1.65625 -10.265625 C 2.25 -11.304688 3.082031 -12.109375 4.15625 -12.671875 C 5.226562 -13.242188 6.457031 -13.53125 7.84375 -13.53125 C 9.675781 -13.53125 11.207031 -13.09375 12.4375 -12.21875 L 12.4375 -9.9375 C 11.332031 -10.863281 9.875 -11.328125 8.0625 -11.328125 C 7.082031 -11.328125 6.222656 -11.132812 5.484375 -10.75 C 4.753906 -10.363281 4.1875 -9.816406 3.78125 -9.109375 C 3.382812 -8.410156 3.1875 -7.578125 3.1875 -6.609375 C 3.1875 -5.648438 3.390625 -4.816406 3.796875 -4.109375 C 4.210938 -3.398438 4.785156 -2.851562 5.515625 -2.46875 C 6.242188 -2.082031 7.09375 -1.890625 8.0625 -1.890625 C 8.988281 -1.890625 9.816406 -2.003906 10.546875 -2.234375 C 11.285156 -2.472656 11.960938 -2.851562 12.578125 -3.375 L 12.578125 -1.078125 C 11.421875 -0.171875 9.84375 0.28125 7.84375 0.28125 Z M 7.84375 0.28125 "/></g></g></g><g fill="#000000" fill-opacity="1"><g transform="translate(383.41344, 292.925202)"><g><path d="M 1.140625 -13.25 L 3.546875 -13.25 L 3.546875 0 L 1.140625 0 Z M 1.140625 -13.25 "/></g></g></g><g fill="#000000" fill-opacity="1"><g transform="translate(388.093468, 292.925202)"><g><path d="M 4.96875 0.28125 C 4.1875 0.28125 3.410156 0.207031 2.640625 0.0625 C 1.878906 -0.0820312 1.253906 -0.273438 0.765625 -0.515625 L 0.765625 -2.578125 C 1.390625 -2.273438 2.050781 -2.046875 2.75 -1.890625 C 3.445312 -1.742188 4.128906 -1.671875 4.796875 -1.671875 C 5.640625 -1.671875 6.28125 -1.828125 6.71875 -2.140625 C 7.164062 -2.453125 7.390625 -2.890625 7.390625 -3.453125 C 7.390625 -3.835938 7.285156 -4.160156 7.078125 -4.421875 C 6.878906 -4.679688 6.582031 -4.910156 6.1875 -5.109375 C 5.800781 -5.304688 5.203125 -5.5625 4.390625 -5.875 C 3.160156 -6.382812 2.265625 -6.945312 1.703125 -7.5625 C 1.148438 -8.175781 0.875 -8.945312 0.875 -9.875 C 0.875 -10.59375 1.066406 -11.226562 1.453125 -11.78125 C 1.847656 -12.34375 2.398438 -12.773438 3.109375 -13.078125 C 3.816406 -13.378906 4.628906 -13.53125 5.546875 -13.53125 C 6.304688 -13.53125 6.976562 -13.46875 7.5625 -13.34375 C 8.15625 -13.226562 8.738281 -13.046875 9.3125 -12.796875 L 9.3125 -10.78125 C 8.207031 -11.3125 7.09375 -11.578125 5.96875 -11.578125 C 5.15625 -11.578125 4.53125 -11.425781 4.09375 -11.125 C 3.65625 -10.832031 3.4375 -10.414062 3.4375 -9.875 C 3.4375 -9.476562 3.535156 -9.15625 3.734375 -8.90625 C 3.929688 -8.664062 4.195312 -8.457031 4.53125 -8.28125 C 4.875 -8.113281 5.476562 -7.847656 6.34375 -7.484375 C 7.226562 -7.117188 7.925781 -6.757812 8.4375 -6.40625 C 8.957031 -6.050781 9.34375 -5.632812 9.59375 -5.15625 C 9.851562 -4.6875 9.984375 -4.113281 9.984375 -3.4375 C 9.984375 -2.257812 9.5625 -1.34375 8.71875 -0.6875 C 7.875 -0.0390625 6.625 0.28125 4.96875 0.28125 Z M 4.96875 0.28125 "/></g></g></g><g fill="#000000" fill-opacity="1"><g transform="translate(398.836683, 292.925202)"><g><path d="M 1.140625 -13.25 L 3.546875 -13.25 L 3.546875 0 L 1.140625 0 Z M 1.140625 -13.25 "/></g></g></g><g fill="#000000" fill-opacity="1"><g transform="translate(403.51671, 292.925202)"><g><path d="M 7.796875 0.28125 C 6.460938 0.28125 5.257812 -0.00390625 4.1875 -0.578125 C 3.125 -1.148438 2.285156 -1.960938 1.671875 -3.015625 C 1.066406 -4.066406 0.765625 -5.265625 0.765625 -6.609375 C 0.765625 -7.960938 1.066406 -9.160156 1.671875 -10.203125 C 2.285156 -11.253906 3.125 -12.070312 4.1875 -12.65625 C 5.257812 -13.238281 6.460938 -13.53125 7.796875 -13.53125 C 9.109375 -13.53125 10.296875 -13.238281 11.359375 -12.65625 C 12.429688 -12.070312 13.269531 -11.253906 13.875 -10.203125 C 14.488281 -9.160156 14.796875 -7.960938 14.796875 -6.609375 C 14.796875 -5.265625 14.488281 -4.066406 13.875 -3.015625 C 13.269531 -1.972656 12.429688 -1.160156 11.359375 -0.578125 C 10.296875 -0.00390625 9.109375 0.28125 7.796875 0.28125 Z M 7.796875 -1.890625 C 8.640625 -1.890625 9.40625 -2.082031 10.09375 -2.46875 C 10.789062 -2.851562 11.34375 -3.398438 11.75 -4.109375 C 12.164062 -4.828125 12.375 -5.660156 12.375 -6.609375 C 12.375 -7.546875 12.171875 -8.367188 11.765625 -9.078125 C 11.359375 -9.796875 10.804688 -10.347656 10.109375 -10.734375 C 9.421875 -11.128906 8.648438 -11.328125 7.796875 -11.328125 C 6.929688 -11.328125 6.144531 -11.128906 5.4375 -10.734375 C 4.738281 -10.347656 4.1875 -9.796875 3.78125 -9.078125 C 3.382812 -8.367188 3.1875 -7.546875 3.1875 -6.609375 C 3.1875 -5.660156 3.390625 -4.828125 3.796875 -4.109375 C 4.210938 -3.398438 4.769531 -2.851562 5.46875 -2.46875 C 6.164062 -2.082031 6.941406 -1.890625 7.796875 -1.890625 Z M 7.796875 -1.890625 "/></g></g></g><g fill="#000000" fill-opacity="1"><g transform="translate(419.072579, 292.925202)"><g><path d="M 1.140625 -13.25 L 3.40625 -13.25 L 9.609375 -4.015625 L 9.609375 -13.25 L 12.015625 -13.25 L 12.015625 0 L 9.734375 0 L 3.546875 -9.25 L 3.546875 0 L 1.140625 0 Z M 1.140625 -13.25 "/></g></g></g><g fill="#000000" fill-opacity="1"><g transform="translate(324.743018, 314.249504)"><g><path d="M 1.140625 -13.25 L 6.4375 -13.25 C 7.894531 -13.25 9.0625 -12.863281 9.9375 -12.09375 C 10.820312 -11.320312 11.265625 -10.265625 11.265625 -8.921875 C 11.265625 -7.535156 10.828125 -6.476562 9.953125 -5.75 C 9.078125 -5.019531 7.898438 -4.65625 6.421875 -4.65625 L 3.546875 -4.65625 L 3.546875 0 L 1.140625 0 Z M 6.140625 -6.65625 C 7.941406 -6.65625 8.84375 -7.410156 8.84375 -8.921875 C 8.84375 -10.484375 7.941406 -11.265625 6.140625 -11.265625 L 3.546875 -11.265625 L 3.546875 -6.65625 Z M 6.140625 -6.65625 "/></g></g></g><g fill="#000000" fill-opacity="1"><g transform="translate(336.376763, 314.249504)"><g><path d="M 4.96875 0.28125 C 4.1875 0.28125 3.410156 0.207031 2.640625 0.0625 C 1.878906 -0.0820312 1.253906 -0.273438 0.765625 -0.515625 L 0.765625 -2.578125 C 1.390625 -2.273438 2.050781 -2.046875 2.75 -1.890625 C 3.445312 -1.742188 4.128906 -1.671875 4.796875 -1.671875 C 5.640625 -1.671875 6.28125 -1.828125 6.71875 -2.140625 C 7.164062 -2.453125 7.390625 -2.890625 7.390625 -3.453125 C 7.390625 -3.835938 7.285156 -4.160156 7.078125 -4.421875 C 6.878906 -4.679688 6.582031 -4.910156 6.1875 -5.109375 C 5.800781 -5.304688 5.203125 -5.5625 4.390625 -5.875 C 3.160156 -6.382812 2.265625 -6.945312 1.703125 -7.5625 C 1.148438 -8.175781 0.875 -8.945312 0.875 -9.875 C 0.875 -10.59375 1.066406 -11.226562 1.453125 -11.78125 C 1.847656 -12.34375 2.398438 -12.773438 3.109375 -13.078125 C 3.816406 -13.378906 4.628906 -13.53125 5.546875 -13.53125 C 6.304688 -13.53125 6.976562 -13.46875 7.5625 -13.34375 C 8.15625 -13.226562 8.738281 -13.046875 9.3125 -12.796875 L 9.3125 -10.78125 C 8.207031 -11.3125 7.09375 -11.578125 5.96875 -11.578125 C 5.15625 -11.578125 4.53125 -11.425781 4.09375 -11.125 C 3.65625 -10.832031 3.4375 -10.414062 3.4375 -9.875 C 3.4375 -9.476562 3.535156 -9.15625 3.734375 -8.90625 C 3.929688 -8.664062 4.195312 -8.457031 4.53125 -8.28125 C 4.875 -8.113281 5.476562 -7.847656 6.34375 -7.484375 C 7.226562 -7.117188 7.925781 -6.757812 8.4375 -6.40625 C 8.957031 -6.050781 9.34375 -5.632812 9.59375 -5.15625 C 9.851562 -4.6875 9.984375 -4.113281 9.984375 -3.4375 C 9.984375 -2.257812 9.5625 -1.34375 8.71875 -0.6875 C 7.875 -0.0390625 6.625 0.28125 4.96875 0.28125 Z M 4.96875 0.28125 "/></g></g></g><g fill="#000000" fill-opacity="1"><g transform="translate(347.119978, 314.249504)"><g><path d="M 5.578125 -5.046875 L 0.765625 -13.25 L 3.3125 -13.25 L 6.734375 -7.359375 L 10.234375 -13.25 L 12.78125 -13.25 L 7.859375 -5.046875 L 7.859375 0 L 5.578125 0 Z M 5.578125 -5.046875 "/></g></g></g><g fill="#000000" fill-opacity="1"><g transform="translate(360.648461, 314.249504)"><g><path d="M 7.84375 0.28125 C 6.457031 0.28125 5.226562 0 4.15625 -0.5625 C 3.082031 -1.125 2.25 -1.925781 1.65625 -2.96875 C 1.0625 -4.007812 0.765625 -5.222656 0.765625 -6.609375 C 0.765625 -8.003906 1.0625 -9.222656 1.65625 -10.265625 C 2.25 -11.304688 3.082031 -12.109375 4.15625 -12.671875 C 5.226562 -13.242188 6.457031 -13.53125 7.84375 -13.53125 C 9.675781 -13.53125 11.207031 -13.09375 12.4375 -12.21875 L 12.4375 -9.9375 C 11.332031 -10.863281 9.875 -11.328125 8.0625 -11.328125 C 7.082031 -11.328125 6.222656 -11.132812 5.484375 -10.75 C 4.753906 -10.363281 4.1875 -9.816406 3.78125 -9.109375 C 3.382812 -8.410156 3.1875 -7.578125 3.1875 -6.609375 C 3.1875 -5.648438 3.390625 -4.816406 3.796875 -4.109375 C 4.210938 -3.398438 4.785156 -2.851562 5.515625 -2.46875 C 6.242188 -2.082031 7.09375 -1.890625 8.0625 -1.890625 C 8.988281 -1.890625 9.816406 -2.003906 10.546875 -2.234375 C 11.285156 -2.472656 11.960938 -2.851562 12.578125 -3.375 L 12.578125 -1.078125 C 11.421875 -0.171875 9.84375 0.28125 7.84375 0.28125 Z M 7.84375 0.28125 "/></g></g></g><g fill="#000000" fill-opacity="1"><g transform="translate(373.987473, 314.249504)"><g><path d="M 1.140625 -13.25 L 3.546875 -13.25 L 3.546875 -7.75 L 9.90625 -7.75 L 9.90625 -13.25 L 12.296875 -13.25 L 12.296875 0 L 9.90625 0 L 9.90625 -5.765625 L 3.546875 -5.765625 L 3.546875 0 L 1.140625 0 Z M 1.140625 -13.25 "/></g></g></g><g fill="#000000" fill-opacity="1"><g transform="translate(387.421227, 314.249504)"><g><path d="M 1.140625 -13.25 L 3.546875 -13.25 L 3.546875 0 L 1.140625 0 Z M 1.140625 -13.25 "/></g></g></g><g fill="#000000" fill-opacity="1"><g transform="translate(392.101254, 314.249504)"><g><path d="M 6.0625 -13.25 L 8.390625 -13.25 L 13.6875 0 L 11.234375 0 L 10.03125 -3.046875 L 4.421875 -3.046875 L 3.21875 0 L 0.765625 0 Z M 9.359375 -5.046875 L 7.21875 -10.671875 L 5.078125 -5.046875 Z M 9.359375 -5.046875 "/></g></g></g><g fill="#000000" fill-opacity="1"><g transform="translate(406.539215, 314.249504)"><g><path d="M 4.375 -11.265625 L 0.375 -11.265625 L 0.375 -13.25 L 10.78125 -13.25 L 10.78125 -11.265625 L 6.78125 -11.265625 L 6.78125 0 L 4.375 0 Z M 4.375 -11.265625 "/></g></g></g><g fill="#000000" fill-opacity="1"><g transform="translate(417.699267, 314.249504)"><g><path d="M 1.140625 -13.25 L 6.671875 -13.25 C 8.140625 -13.25 9.269531 -12.890625 10.0625 -12.171875 C 10.863281 -11.453125 11.265625 -10.410156 11.265625 -9.046875 C 11.265625 -8.066406 11.019531 -7.234375 10.53125 -6.546875 C 10.050781 -5.867188 9.367188 -5.382812 8.484375 -5.09375 L 11.1875 0 L 8.71875 0 L 6.15625 -4.859375 L 3.546875 -4.859375 L 3.546875 0 L 1.140625 0 Z M 6.234375 -6.84375 C 7.015625 -6.84375 7.644531 -7.023438 8.125 -7.390625 C 8.601562 -7.753906 8.84375 -8.304688 8.84375 -9.046875 C 8.84375 -10.523438 7.972656 -11.265625 6.234375 -11.265625 L 3.546875 -11.265625 L 3.546875 -6.84375 Z M 6.234375 -6.84375 "/></g></g></g><g fill="#000000" fill-opacity="1"><g transform="translate(429.711953, 314.249504)"><g><path d="M 5.578125 -5.046875 L 0.765625 -13.25 L 3.3125 -13.25 L 6.734375 -7.359375 L 10.234375 -13.25 L 12.78125 -13.25 L 7.859375 -5.046875 L 7.859375 0 L 5.578125 0 Z M 5.578125 -5.046875 "/></g></g></g><g fill="#000000" fill-opacity="1"><g transform="translate(345.756341, 335.573807)"><g><path d="M 1.140625 -13.25 L 3.484375 -13.25 L 7.921875 -3.546875 L 12.359375 -13.25 L 14.703125 -13.25 L 14.703125 0 L 12.4375 0 L 12.4375 -8.609375 L 8.484375 0 L 7.359375 0 L 3.40625 -8.609375 L 3.40625 0 L 1.140625 0 Z M 1.140625 -13.25 "/></g></g></g><g fill="#000000" fill-opacity="1"><g transform="translate(361.596421, 335.573807)"><g><path d="M 7.796875 0.28125 C 6.460938 0.28125 5.257812 -0.00390625 4.1875 -0.578125 C 3.125 -1.148438 2.285156 -1.960938 1.671875 -3.015625 C 1.066406 -4.066406 0.765625 -5.265625 0.765625 -6.609375 C 0.765625 -7.960938 1.066406 -9.160156 1.671875 -10.203125 C 2.285156 -11.253906 3.125 -12.070312 4.1875 -12.65625 C 5.257812 -13.238281 6.460938 -13.53125 7.796875 -13.53125 C 9.109375 -13.53125 10.296875 -13.238281 11.359375 -12.65625 C 12.429688 -12.070312 13.269531 -11.253906 13.875 -10.203125 C 14.488281 -9.160156 14.796875 -7.960938 14.796875 -6.609375 C 14.796875 -5.265625 14.488281 -4.066406 13.875 -3.015625 C 13.269531 -1.972656 12.429688 -1.160156 11.359375 -0.578125 C 10.296875 -0.00390625 9.109375 0.28125 7.796875 0.28125 Z M 7.796875 -1.890625 C 8.640625 -1.890625 9.40625 -2.082031 10.09375 -2.46875 C 10.789062 -2.851562 11.34375 -3.398438 11.75 -4.109375 C 12.164062 -4.828125 12.375 -5.660156 12.375 -6.609375 C 12.375 -7.546875 12.171875 -8.367188 11.765625 -9.078125 C 11.359375 -9.796875 10.804688 -10.347656 10.109375 -10.734375 C 9.421875 -11.128906 8.648438 -11.328125 7.796875 -11.328125 C 6.929688 -11.328125 6.144531 -11.128906 5.4375 -10.734375 C 4.738281 -10.347656 4.1875 -9.796875 3.78125 -9.078125 C 3.382812 -8.367188 3.1875 -7.546875 3.1875 -6.609375 C 3.1875 -5.660156 3.390625 -4.828125 3.796875 -4.109375 C 4.210938 -3.398438 4.769531 -2.851562 5.46875 -2.46875 C 6.164062 -2.082031 6.941406 -1.890625 7.796875 -1.890625 Z M 7.796875 -1.890625 "/></g></g></g><g fill="#000000" fill-opacity="1"><g transform="translate(377.15229, 335.573807)"><g><path d="M 1.140625 -13.25 L 5.578125 -13.25 C 7.015625 -13.25 8.265625 -12.984375 9.328125 -12.453125 C 10.390625 -11.921875 11.203125 -11.160156 11.765625 -10.171875 C 12.335938 -9.191406 12.625 -8.03125 12.625 -6.6875 C 12.625 -4.488281 11.984375 -2.820312 10.703125 -1.6875 C 9.429688 -0.5625 7.648438 0 5.359375 0 L 1.140625 0 Z M 5.40625 -1.984375 C 6.945312 -1.984375 8.128906 -2.394531 8.953125 -3.21875 C 9.785156 -4.050781 10.203125 -5.207031 10.203125 -6.6875 C 10.203125 -7.582031 10.015625 -8.375 9.640625 -9.0625 C 9.273438 -9.757812 8.75 -10.300781 8.0625 -10.6875 C 7.382812 -11.070312 6.578125 -11.265625 5.640625 -11.265625 L 3.546875 -11.265625 L 3.546875 -1.984375 Z M 5.40625 -1.984375 "/></g></g></g><g fill="#000000" fill-opacity="1"><g transform="translate(390.529198, 335.573807)"><g><path d="M 1.140625 -13.25 L 10.109375 -13.25 L 10.109375 -11.265625 L 3.546875 -11.265625 L 3.546875 -7.625 L 8.421875 -7.625 L 8.421875 -5.625 L 3.546875 -5.625 L 3.546875 -1.984375 L 10.109375 -1.984375 L 10.109375 0 L 1.140625 0 Z M 1.140625 -13.25 "/></g></g></g><g fill="#000000" fill-opacity="1"><g transform="translate(401.196621, 335.573807)"><g><path d="M 1.140625 -13.25 L 3.546875 -13.25 L 3.546875 -1.984375 L 9.90625 -1.984375 L 9.90625 0 L 1.140625 0 Z M 1.140625 -13.25 "/></g></g></g><g fill="#000000" fill-opacity="1"><g transform="translate(411.485091, 335.573807)"><g><path d="M 4.96875 0.28125 C 4.1875 0.28125 3.410156 0.207031 2.640625 0.0625 C 1.878906 -0.0820312 1.253906 -0.273438 0.765625 -0.515625 L 0.765625 -2.578125 C 1.390625 -2.273438 2.050781 -2.046875 2.75 -1.890625 C 3.445312 -1.742188 4.128906 -1.671875 4.796875 -1.671875 C 5.640625 -1.671875 6.28125 -1.828125 6.71875 -2.140625 C 7.164062 -2.453125 7.390625 -2.890625 7.390625 -3.453125 C 7.390625 -3.835938 7.285156 -4.160156 7.078125 -4.421875 C 6.878906 -4.679688 6.582031 -4.910156 6.1875 -5.109375 C 5.800781 -5.304688 5.203125 -5.5625 4.390625 -5.875 C 3.160156 -6.382812 2.265625 -6.945312 1.703125 -7.5625 C 1.148438 -8.175781 0.875 -8.945312 0.875 -9.875 C 0.875 -10.59375 1.066406 -11.226562 1.453125 -11.78125 C 1.847656 -12.34375 2.398438 -12.773438 3.109375 -13.078125 C 3.816406 -13.378906 4.628906 -13.53125 5.546875 -13.53125 C 6.304688 -13.53125 6.976562 -13.46875 7.5625 -13.34375 C 8.15625 -13.226562 8.738281 -13.046875 9.3125 -12.796875 L 9.3125 -10.78125 C 8.207031 -11.3125 7.09375 -11.578125 5.96875 -11.578125 C 5.15625 -11.578125 4.53125 -11.425781 4.09375 -11.125 C 3.65625 -10.832031 3.4375 -10.414062 3.4375 -9.875 C 3.4375 -9.476562 3.535156 -9.15625 3.734375 -8.90625 C 3.929688 -8.664062 4.195312 -8.457031 4.53125 -8.28125 C 4.875 -8.113281 5.476562 -7.847656 6.34375 -7.484375 C 7.226562 -7.117188 7.925781 -6.757812 8.4375 -6.40625 C 8.957031 -6.050781 9.34375 -5.632812 9.59375 -5.15625 C 9.851562 -4.6875 9.984375 -4.113281 9.984375 -3.4375 C 9.984375 -2.257812 9.5625 -1.34375 8.71875 -0.6875 C 7.875 -0.0390625 6.625 0.28125 4.96875 0.28125 Z M 4.96875 0.28125 "/></g></g></g></svg>